%TF.GenerationSoftware,KiCad,Pcbnew,10.0.0*%
%TF.CreationDate,2026-09-15T22:04:57+03:00*%
%TF.ProjectId,Ch040,43683034-302e-46b6-9963-61645f706362,rev?*%
%TF.SameCoordinates,Original*%
%TF.FileFunction,Copper,L1,Top*%
%TF.FilePolarity,Positive*%
%FSLAX46Y46*%
G04 Gerber Fmt 4.6, Leading zero omitted, Abs format (unit mm)*
G04 Created by KiCad (PCBNEW 10.0.0) date 2026-09-15 22:04:57*
%MOMM*%
%LPD*%
G01*
G04 APERTURE LIST*
G04 Aperture macros list*
%AMRoundRect*
0 Rectangle with rounded corners*
0 $1 Rounding radius*
0 $2 $3 $4 $5 $6 $7 $8 $9 X,Y pos of 4 corners*
0 Add a 4 corners polygon primitive as box body*
4,1,4,$2,$3,$4,$5,$6,$7,$8,$9,$2,$3,0*
0 Add four circle primitives for the rounded corners*
1,1,$1+$1,$2,$3*
1,1,$1+$1,$4,$5*
1,1,$1+$1,$6,$7*
1,1,$1+$1,$8,$9*
0 Add four rect primitives between the rounded corners*
20,1,$1+$1,$2,$3,$4,$5,0*
20,1,$1+$1,$4,$5,$6,$7,0*
20,1,$1+$1,$6,$7,$8,$9,0*
20,1,$1+$1,$8,$9,$2,$3,0*%
G04 Aperture macros list end*
%TA.AperFunction,ComponentPad*%
%ADD10C,1.700000*%
%TD*%
%TA.AperFunction,ComponentPad*%
%ADD11R,1.700000X1.700000*%
%TD*%
%TA.AperFunction,SMDPad,CuDef*%
%ADD12RoundRect,0.250000X-1.000000X-0.650000X1.000000X-0.650000X1.000000X0.650000X-1.000000X0.650000X0*%
%TD*%
%TA.AperFunction,SMDPad,CuDef*%
%ADD13RoundRect,0.218750X-0.218750X-0.256250X0.218750X-0.256250X0.218750X0.256250X-0.218750X0.256250X0*%
%TD*%
%TA.AperFunction,SMDPad,CuDef*%
%ADD14RoundRect,0.250000X-0.450000X0.262500X-0.450000X-0.262500X0.450000X-0.262500X0.450000X0.262500X0*%
%TD*%
%TA.AperFunction,SMDPad,CuDef*%
%ADD15RoundRect,0.250000X-0.250000X-1.100000X0.250000X-1.100000X0.250000X1.100000X-0.250000X1.100000X0*%
%TD*%
%TA.AperFunction,SMDPad,CuDef*%
%ADD16RoundRect,0.150000X-0.150000X-0.700000X0.150000X-0.700000X0.150000X0.700000X-0.150000X0.700000X0*%
%TD*%
%TA.AperFunction,SMDPad,CuDef*%
%ADD17R,1.400000X1.200000*%
%TD*%
%TA.AperFunction,Conductor*%
%ADD18C,0.800000*%
%TD*%
%TA.AperFunction,Conductor*%
%ADD19C,0.300000*%
%TD*%
%TA.AperFunction,Conductor*%
%ADD20C,0.500000*%
%TD*%
G04 APERTURE END LIST*
D10*
%TO.P,J4,2,Pin_2_2*%
%TO.N,GND*%
X124000000Y-112425000D03*
D11*
%TO.P,J4,1,Pin_1_1*%
%TO.N,VIN_3V3_5V*%
X126540000Y-112425000D03*
%TD*%
D12*
%TO.P,D1,2,A2_2*%
%TO.N,VDD*%
X128250000Y-107425000D03*
%TO.P,D1,1,A1_1*%
%TO.N,GND*%
X124250000Y-107425000D03*
%TD*%
D13*
%TO.P,F1,2*%
%TO.N,VDD*%
X127787500Y-109925000D03*
%TO.P,F1,1*%
%TO.N,VIN_3V3_5V*%
X126212500Y-109925000D03*
%TD*%
D14*
%TO.P,R2,2*%
%TO.N,UART1_RX*%
X135575000Y-107387500D03*
%TO.P,R2,1*%
%TO.N,RXD1*%
X135575000Y-105562500D03*
%TD*%
D15*
%TO.P,J3,MP*%
%TO.N,N/C*%
X137025000Y-112700000D03*
X129575000Y-112700000D03*
D16*
%TO.P,J3,4,Pin_4_4*%
%TO.N,UART1_RX*%
X135175000Y-109500000D03*
%TO.P,J3,3,Pin_3_3*%
%TO.N,UART1_TX*%
X133925000Y-109500000D03*
%TO.P,J3,2,Pin_2_2*%
%TO.N,GND*%
X132675000Y-109500000D03*
%TO.P,J3,1,Pin_1_1*%
%TO.N,VDD*%
X131425000Y-109500000D03*
%TD*%
D14*
%TO.P,R1,2*%
%TO.N,UART1_TX*%
X133650000Y-107387500D03*
%TO.P,R1,1*%
%TO.N,TXD1*%
X133650000Y-105562500D03*
%TD*%
D15*
%TO.P,J5,MP*%
%TO.N,N/C*%
X146480000Y-112700000D03*
X139030000Y-112700000D03*
D16*
%TO.P,J5,4,Pin_4_4*%
%TO.N,CAN_TX*%
X144630000Y-109500000D03*
%TO.P,J5,3,Pin_3_3*%
%TO.N,CAN_RX*%
X143380000Y-109500000D03*
%TO.P,J5,2,Pin_2_2*%
%TO.N,GND*%
X142130000Y-109500000D03*
%TO.P,J5,1,Pin_1_1*%
%TO.N,VDD*%
X140880000Y-109500000D03*
%TD*%
D17*
%TO.P,U1,1,VDD_1*%
%TO.N,VDD*%
X123050000Y-82500000D03*
%TO.P,U1,2,GND_2*%
%TO.N,GND*%
X123050000Y-84500000D03*
%TO.P,U1,3,EN_3*%
%TO.N,EN*%
X123050000Y-86500000D03*
%TO.P,U1,4,IO1_4*%
%TO.N,IO1*%
X123050000Y-90500000D03*
%TO.P,U1,5,IO2_5*%
%TO.N,IO2*%
X123050000Y-92500000D03*
%TO.P,U1,6,RXD2_6*%
%TO.N,RXD2*%
X123050000Y-94500000D03*
%TO.P,U1,7,TXD2_7*%
%TO.N,TXD2*%
X123050000Y-96500000D03*
%TO.P,U1,8,GND_8*%
%TO.N,GND*%
X123050000Y-98500000D03*
%TO.P,U1,9,IO5_9*%
%TO.N,IO5*%
X123050000Y-100500000D03*
%TO.P,U1,10,IO6_10*%
%TO.N,IO6*%
X143050000Y-100500000D03*
%TO.P,U1,11,TXD1_11*%
%TO.N,TXD1*%
X143050000Y-98500000D03*
%TO.P,U1,12,RXD1_12*%
%TO.N,RXD1*%
X143050000Y-96500000D03*
%TO.P,U1,13,IO9_13*%
%TO.N,IO9*%
X143050000Y-94500000D03*
%TO.P,U1,14,CAN_RX_14*%
%TO.N,CAN_RX*%
X143050000Y-92500000D03*
%TO.P,U1,15,CAN_TX_15*%
%TO.N,CAN_TX*%
X143050000Y-90500000D03*
%TO.P,U1,16,TXD3_16*%
%TO.N,TXD3*%
X143050000Y-86500000D03*
%TO.P,U1,17,RXD3_17*%
%TO.N,RXD3*%
X143050000Y-84500000D03*
%TO.P,U1,18,NRST_18*%
%TO.N,NRST*%
X143050000Y-82500000D03*
%TD*%
D11*
%TO.P,J2,1,Pin_1_1*%
%TO.N,NRST*%
X146000000Y-81800000D03*
D10*
%TO.P,J2,2,Pin_2_2*%
%TO.N,RXD3*%
X146000000Y-84340000D03*
%TO.P,J2,3,Pin_3_3*%
%TO.N,TXD3*%
X146000000Y-86880000D03*
%TO.P,J2,4,Pin_4_4*%
%TO.N,CAN_TX*%
X146000000Y-89420000D03*
%TO.P,J2,5,Pin_5_5*%
%TO.N,CAN_RX*%
X146000000Y-91960000D03*
%TO.P,J2,6,Pin_6_6*%
%TO.N,IO9*%
X146000000Y-94500000D03*
%TO.P,J2,7,Pin_7_7*%
%TO.N,RXD1*%
X146000000Y-97040000D03*
%TO.P,J2,8,Pin_8_8*%
%TO.N,TXD1*%
X146000000Y-99580000D03*
%TO.P,J2,9,Pin_9_9*%
%TO.N,IO6*%
X146000000Y-102120000D03*
%TD*%
D11*
%TO.P,J1,1,Pin_1_1*%
%TO.N,VDD*%
X120250000Y-81800000D03*
D10*
%TO.P,J1,2,Pin_2_2*%
%TO.N,GND*%
X120250000Y-84340000D03*
%TO.P,J1,3,Pin_3_3*%
%TO.N,EN*%
X120250000Y-86880000D03*
%TO.P,J1,4,Pin_4_4*%
%TO.N,IO1*%
X120250000Y-89420000D03*
%TO.P,J1,5,Pin_5_5*%
%TO.N,IO2*%
X120250000Y-91960000D03*
%TO.P,J1,6,Pin_6_6*%
%TO.N,RXD2*%
X120250000Y-94500000D03*
%TO.P,J1,7,Pin_7_7*%
%TO.N,TXD2*%
X120250000Y-97040000D03*
%TO.P,J1,8,Pin_8_8*%
%TO.N,GND*%
X120250000Y-99580000D03*
%TO.P,J1,9,Pin_9_9*%
%TO.N,IO5*%
X120250000Y-102120000D03*
%TD*%
%TO.N,GND*%
D18*
X123750000Y-112425000D02*
X124000000Y-112425000D01*
X118750000Y-107425000D02*
X123750000Y-112425000D01*
X118750000Y-85840000D02*
X118750000Y-107425000D01*
%TO.N,VDD*%
X117750000Y-84300000D02*
X120250000Y-81800000D01*
X117750000Y-108425000D02*
X117750000Y-84300000D01*
%TO.N,CAN_TX*%
D19*
X144630000Y-109500000D02*
X144630000Y-107370000D01*
%TO.N,CAN_RX*%
X143380000Y-109500000D02*
X143380000Y-107851270D01*
%TO.N,RXD1*%
X147700000Y-102824163D02*
X147700000Y-98740000D01*
X145524163Y-105000000D02*
X147700000Y-102824163D01*
X147700000Y-98740000D02*
X146000000Y-97040000D01*
X136137500Y-105000000D02*
X145524163Y-105000000D01*
X135575000Y-105562500D02*
X136137500Y-105000000D01*
%TO.N,TXD1*%
X147200000Y-100780000D02*
X146000000Y-99580000D01*
X147200000Y-102617057D02*
X147200000Y-100780000D01*
X145317057Y-104500000D02*
X147200000Y-102617057D01*
X134712500Y-104500000D02*
X145317057Y-104500000D01*
X133650000Y-105562500D02*
X134712500Y-104500000D01*
%TO.N,CAN_TX*%
X148700000Y-103300000D02*
X148700000Y-92120000D01*
X148700000Y-92120000D02*
X146000000Y-89420000D01*
X144630000Y-107370000D02*
X148700000Y-103300000D01*
%TO.N,VDD*%
D18*
X123750000Y-114425000D02*
X117750000Y-108425000D01*
X127000000Y-114425000D02*
X123750000Y-114425000D01*
%TO.N,GND*%
X124250000Y-112175000D02*
X124000000Y-112425000D01*
X124250000Y-107425000D02*
X124250000Y-112175000D01*
X129949999Y-105925000D02*
X132675000Y-108650001D01*
X126500000Y-105925000D02*
X129949999Y-105925000D01*
X132675000Y-108650001D02*
X132675000Y-109500000D01*
X125000000Y-107425000D02*
X126500000Y-105925000D01*
X124250000Y-107425000D02*
X125000000Y-107425000D01*
%TO.N,VDD*%
X127787500Y-107887500D02*
X128250000Y-107425000D01*
X127787500Y-109925000D02*
X127787500Y-107887500D01*
D20*
X140880000Y-113196878D02*
X140880000Y-109500000D01*
X139576878Y-114500000D02*
X140880000Y-113196878D01*
X127075000Y-114500000D02*
X139576878Y-114500000D01*
D18*
X127500000Y-114425000D02*
X127990000Y-113935000D01*
X127990000Y-110127500D02*
X127787500Y-109925000D01*
X127000000Y-114425000D02*
X127500000Y-114425000D01*
X127990000Y-113935000D02*
X127990000Y-110127500D01*
D20*
X127000000Y-114425000D02*
X127075000Y-114500000D01*
X131425000Y-113575000D02*
X130500000Y-114500000D01*
X131425000Y-109500000D02*
X131425000Y-113575000D01*
%TO.N,VIN_3V3_5V*%
D18*
X126540000Y-110252500D02*
X126212500Y-109925000D01*
X126540000Y-112425000D02*
X126540000Y-110252500D01*
%TO.N,UART1_RX*%
D19*
X135175000Y-109500000D02*
X135175000Y-107787500D01*
X135175000Y-107787500D02*
X135575000Y-107387500D01*
%TO.N,UART1_TX*%
X133925000Y-109500000D02*
X133925000Y-107662500D01*
X133925000Y-107662500D02*
X133650000Y-107387500D01*
%TO.N,GND*%
D20*
X142130000Y-108835184D02*
X142130000Y-109500000D01*
D18*
X132675000Y-109500000D02*
X132675000Y-110349999D01*
X133275001Y-110950000D02*
X136075000Y-110950000D01*
X136075000Y-110950000D02*
X138975000Y-108050000D01*
X132675000Y-110349999D02*
X133275001Y-110950000D01*
X138975000Y-108050000D02*
X141344816Y-108050000D01*
X141344816Y-108050000D02*
X142130000Y-108835184D01*
%TO.N,CAN_RX*%
D19*
X148200000Y-94160000D02*
X146000000Y-91960000D01*
X143380000Y-107851270D02*
X148200000Y-103031269D01*
X148200000Y-103031269D02*
X148200000Y-94160000D01*
%TO.N,IO5*%
X121870000Y-100500000D02*
X120250000Y-102120000D01*
X123050000Y-100500000D02*
X121870000Y-100500000D01*
%TO.N,TXD2*%
X120790000Y-96500000D02*
X120250000Y-97040000D01*
X123050000Y-96500000D02*
X120790000Y-96500000D01*
%TO.N,RXD2*%
X123050000Y-94500000D02*
X120250000Y-94500000D01*
%TO.N,IO2*%
X120790000Y-92500000D02*
X120250000Y-91960000D01*
X123050000Y-92500000D02*
X120790000Y-92500000D01*
%TO.N,IO1*%
X121330000Y-90500000D02*
X120250000Y-89420000D01*
X123050000Y-90500000D02*
X121330000Y-90500000D01*
%TO.N,EN*%
X120630000Y-86500000D02*
X120250000Y-86880000D01*
X123050000Y-86500000D02*
X120630000Y-86500000D01*
%TO.N,NRST*%
X145300000Y-82500000D02*
X146000000Y-81800000D01*
X143050000Y-82500000D02*
X145300000Y-82500000D01*
%TO.N,RXD3*%
X145840000Y-84500000D02*
X146000000Y-84340000D01*
X143050000Y-84500000D02*
X145840000Y-84500000D01*
%TO.N,TXD3*%
X145620000Y-86500000D02*
X146000000Y-86880000D01*
X143050000Y-86500000D02*
X145620000Y-86500000D01*
%TO.N,CAN_TX*%
X144920000Y-90500000D02*
X146000000Y-89420000D01*
X143050000Y-90500000D02*
X144920000Y-90500000D01*
%TO.N,CAN_RX*%
X145460000Y-92500000D02*
X146000000Y-91960000D01*
X143050000Y-92500000D02*
X145460000Y-92500000D01*
%TO.N,IO9*%
X146000000Y-94500000D02*
X143050000Y-94500000D01*
%TO.N,RXD1*%
X143590000Y-97040000D02*
X143050000Y-96500000D01*
X146000000Y-97040000D02*
X143590000Y-97040000D01*
%TO.N,TXD1*%
X144920000Y-98500000D02*
X143050000Y-98500000D01*
X146000000Y-99580000D02*
X144920000Y-98500000D01*
%TO.N,IO6*%
X144380000Y-100500000D02*
X143050000Y-100500000D01*
X146000000Y-102120000D02*
X144380000Y-100500000D01*
%TO.N,VDD*%
D20*
X122350000Y-81800000D02*
X123050000Y-82500000D01*
X120250000Y-81800000D02*
X122350000Y-81800000D01*
%TO.N,GND*%
D18*
X122890000Y-84340000D02*
X123050000Y-84500000D01*
X120250000Y-84340000D02*
X122890000Y-84340000D01*
X121330000Y-98500000D02*
X123050000Y-98500000D01*
X120250000Y-99580000D02*
X121330000Y-98500000D01*
X118750000Y-85840000D02*
X120250000Y-84340000D01*
X118750000Y-101080000D02*
X120250000Y-99580000D01*
%TD*%
M02*
