%TF.GenerationSoftware,KiCad,Pcbnew,10.0.0*%
%TF.CreationDate,2026-09-15T10:52:48+03:00*%
%TF.ProjectId,Ch040,43683034-302e-46b6-9963-61645f706362,rev?*%
%TF.SameCoordinates,Original*%
%TF.FileFunction,Legend,Top*%
%TF.FilePolarity,Positive*%
%FSLAX46Y46*%
G04 Gerber Fmt 4.6, Leading zero omitted, Abs format (unit mm)*
G04 Created by KiCad (PCBNEW 10.0.0) date 2026-09-15 10:52:48*
%MOMM*%
%LPD*%
G01*
G04 APERTURE LIST*
%ADD10C,0.100000*%
%ADD11C,0.150000*%
%ADD12C,0.120000*%
G04 APERTURE END LIST*
D10*
X148183609Y-102815163D02*
X147683609Y-102815163D01*
X147683609Y-102481830D02*
X147683609Y-102386592D01*
X147683609Y-102386592D02*
X147707419Y-102338973D01*
X147707419Y-102338973D02*
X147755038Y-102291354D01*
X147755038Y-102291354D02*
X147850276Y-102267544D01*
X147850276Y-102267544D02*
X148016942Y-102267544D01*
X148016942Y-102267544D02*
X148112180Y-102291354D01*
X148112180Y-102291354D02*
X148159800Y-102338973D01*
X148159800Y-102338973D02*
X148183609Y-102386592D01*
X148183609Y-102386592D02*
X148183609Y-102481830D01*
X148183609Y-102481830D02*
X148159800Y-102529449D01*
X148159800Y-102529449D02*
X148112180Y-102577068D01*
X148112180Y-102577068D02*
X148016942Y-102600877D01*
X148016942Y-102600877D02*
X147850276Y-102600877D01*
X147850276Y-102600877D02*
X147755038Y-102577068D01*
X147755038Y-102577068D02*
X147707419Y-102529449D01*
X147707419Y-102529449D02*
X147683609Y-102481830D01*
X147683609Y-101838972D02*
X147683609Y-101934210D01*
X147683609Y-101934210D02*
X147707419Y-101981829D01*
X147707419Y-101981829D02*
X147731228Y-102005639D01*
X147731228Y-102005639D02*
X147802657Y-102053258D01*
X147802657Y-102053258D02*
X147897895Y-102077067D01*
X147897895Y-102077067D02*
X148088371Y-102077067D01*
X148088371Y-102077067D02*
X148135990Y-102053258D01*
X148135990Y-102053258D02*
X148159800Y-102029448D01*
X148159800Y-102029448D02*
X148183609Y-101981829D01*
X148183609Y-101981829D02*
X148183609Y-101886591D01*
X148183609Y-101886591D02*
X148159800Y-101838972D01*
X148159800Y-101838972D02*
X148135990Y-101815163D01*
X148135990Y-101815163D02*
X148088371Y-101791353D01*
X148088371Y-101791353D02*
X147969323Y-101791353D01*
X147969323Y-101791353D02*
X147921704Y-101815163D01*
X147921704Y-101815163D02*
X147897895Y-101838972D01*
X147897895Y-101838972D02*
X147874085Y-101886591D01*
X147874085Y-101886591D02*
X147874085Y-101981829D01*
X147874085Y-101981829D02*
X147897895Y-102029448D01*
X147897895Y-102029448D02*
X147921704Y-102053258D01*
X147921704Y-102053258D02*
X147969323Y-102077067D01*
X147683609Y-100386591D02*
X147683609Y-100100877D01*
X148183609Y-100243734D02*
X147683609Y-100243734D01*
X147683609Y-99981830D02*
X148183609Y-99648497D01*
X147683609Y-99648497D02*
X148183609Y-99981830D01*
X148183609Y-99458021D02*
X147683609Y-99458021D01*
X147683609Y-99458021D02*
X147683609Y-99338973D01*
X147683609Y-99338973D02*
X147707419Y-99267545D01*
X147707419Y-99267545D02*
X147755038Y-99219926D01*
X147755038Y-99219926D02*
X147802657Y-99196116D01*
X147802657Y-99196116D02*
X147897895Y-99172307D01*
X147897895Y-99172307D02*
X147969323Y-99172307D01*
X147969323Y-99172307D02*
X148064561Y-99196116D01*
X148064561Y-99196116D02*
X148112180Y-99219926D01*
X148112180Y-99219926D02*
X148159800Y-99267545D01*
X148159800Y-99267545D02*
X148183609Y-99338973D01*
X148183609Y-99338973D02*
X148183609Y-99458021D01*
X148183609Y-98696116D02*
X148183609Y-98981830D01*
X148183609Y-98838973D02*
X147683609Y-98838973D01*
X147683609Y-98838973D02*
X147755038Y-98886592D01*
X147755038Y-98886592D02*
X147802657Y-98934211D01*
X147802657Y-98934211D02*
X147826466Y-98981830D01*
X148183609Y-97529449D02*
X147945514Y-97696115D01*
X148183609Y-97815163D02*
X147683609Y-97815163D01*
X147683609Y-97815163D02*
X147683609Y-97624687D01*
X147683609Y-97624687D02*
X147707419Y-97577068D01*
X147707419Y-97577068D02*
X147731228Y-97553258D01*
X147731228Y-97553258D02*
X147778847Y-97529449D01*
X147778847Y-97529449D02*
X147850276Y-97529449D01*
X147850276Y-97529449D02*
X147897895Y-97553258D01*
X147897895Y-97553258D02*
X147921704Y-97577068D01*
X147921704Y-97577068D02*
X147945514Y-97624687D01*
X147945514Y-97624687D02*
X147945514Y-97815163D01*
X147683609Y-97362782D02*
X148183609Y-97029449D01*
X147683609Y-97029449D02*
X148183609Y-97362782D01*
X148183609Y-96838973D02*
X147683609Y-96838973D01*
X147683609Y-96838973D02*
X147683609Y-96719925D01*
X147683609Y-96719925D02*
X147707419Y-96648497D01*
X147707419Y-96648497D02*
X147755038Y-96600878D01*
X147755038Y-96600878D02*
X147802657Y-96577068D01*
X147802657Y-96577068D02*
X147897895Y-96553259D01*
X147897895Y-96553259D02*
X147969323Y-96553259D01*
X147969323Y-96553259D02*
X148064561Y-96577068D01*
X148064561Y-96577068D02*
X148112180Y-96600878D01*
X148112180Y-96600878D02*
X148159800Y-96648497D01*
X148159800Y-96648497D02*
X148183609Y-96719925D01*
X148183609Y-96719925D02*
X148183609Y-96838973D01*
X148183609Y-96077068D02*
X148183609Y-96362782D01*
X148183609Y-96219925D02*
X147683609Y-96219925D01*
X147683609Y-96219925D02*
X147755038Y-96267544D01*
X147755038Y-96267544D02*
X147802657Y-96315163D01*
X147802657Y-96315163D02*
X147826466Y-96362782D01*
X148183609Y-95315163D02*
X147683609Y-95315163D01*
X147683609Y-94981830D02*
X147683609Y-94886592D01*
X147683609Y-94886592D02*
X147707419Y-94838973D01*
X147707419Y-94838973D02*
X147755038Y-94791354D01*
X147755038Y-94791354D02*
X147850276Y-94767544D01*
X147850276Y-94767544D02*
X148016942Y-94767544D01*
X148016942Y-94767544D02*
X148112180Y-94791354D01*
X148112180Y-94791354D02*
X148159800Y-94838973D01*
X148159800Y-94838973D02*
X148183609Y-94886592D01*
X148183609Y-94886592D02*
X148183609Y-94981830D01*
X148183609Y-94981830D02*
X148159800Y-95029449D01*
X148159800Y-95029449D02*
X148112180Y-95077068D01*
X148112180Y-95077068D02*
X148016942Y-95100877D01*
X148016942Y-95100877D02*
X147850276Y-95100877D01*
X147850276Y-95100877D02*
X147755038Y-95077068D01*
X147755038Y-95077068D02*
X147707419Y-95029449D01*
X147707419Y-95029449D02*
X147683609Y-94981830D01*
X148183609Y-94529448D02*
X148183609Y-94434210D01*
X148183609Y-94434210D02*
X148159800Y-94386591D01*
X148159800Y-94386591D02*
X148135990Y-94362782D01*
X148135990Y-94362782D02*
X148064561Y-94315163D01*
X148064561Y-94315163D02*
X147969323Y-94291353D01*
X147969323Y-94291353D02*
X147778847Y-94291353D01*
X147778847Y-94291353D02*
X147731228Y-94315163D01*
X147731228Y-94315163D02*
X147707419Y-94338972D01*
X147707419Y-94338972D02*
X147683609Y-94386591D01*
X147683609Y-94386591D02*
X147683609Y-94481829D01*
X147683609Y-94481829D02*
X147707419Y-94529448D01*
X147707419Y-94529448D02*
X147731228Y-94553258D01*
X147731228Y-94553258D02*
X147778847Y-94577067D01*
X147778847Y-94577067D02*
X147897895Y-94577067D01*
X147897895Y-94577067D02*
X147945514Y-94553258D01*
X147945514Y-94553258D02*
X147969323Y-94529448D01*
X147969323Y-94529448D02*
X147993133Y-94481829D01*
X147993133Y-94481829D02*
X147993133Y-94386591D01*
X147993133Y-94386591D02*
X147969323Y-94338972D01*
X147969323Y-94338972D02*
X147945514Y-94315163D01*
X147945514Y-94315163D02*
X147897895Y-94291353D01*
X148135990Y-93279449D02*
X148159800Y-93303258D01*
X148159800Y-93303258D02*
X148183609Y-93374687D01*
X148183609Y-93374687D02*
X148183609Y-93422306D01*
X148183609Y-93422306D02*
X148159800Y-93493734D01*
X148159800Y-93493734D02*
X148112180Y-93541353D01*
X148112180Y-93541353D02*
X148064561Y-93565163D01*
X148064561Y-93565163D02*
X147969323Y-93588972D01*
X147969323Y-93588972D02*
X147897895Y-93588972D01*
X147897895Y-93588972D02*
X147802657Y-93565163D01*
X147802657Y-93565163D02*
X147755038Y-93541353D01*
X147755038Y-93541353D02*
X147707419Y-93493734D01*
X147707419Y-93493734D02*
X147683609Y-93422306D01*
X147683609Y-93422306D02*
X147683609Y-93374687D01*
X147683609Y-93374687D02*
X147707419Y-93303258D01*
X147707419Y-93303258D02*
X147731228Y-93279449D01*
X148040752Y-93088972D02*
X148040752Y-92850877D01*
X148183609Y-93136591D02*
X147683609Y-92969925D01*
X147683609Y-92969925D02*
X148183609Y-92803258D01*
X148183609Y-92636592D02*
X147683609Y-92636592D01*
X147683609Y-92636592D02*
X148183609Y-92350878D01*
X148183609Y-92350878D02*
X147683609Y-92350878D01*
X148135990Y-92112782D02*
X148159800Y-92088972D01*
X148159800Y-92088972D02*
X148183609Y-92112782D01*
X148183609Y-92112782D02*
X148159800Y-92136591D01*
X148159800Y-92136591D02*
X148135990Y-92112782D01*
X148135990Y-92112782D02*
X148183609Y-92112782D01*
X148183609Y-91588973D02*
X147945514Y-91755639D01*
X148183609Y-91874687D02*
X147683609Y-91874687D01*
X147683609Y-91874687D02*
X147683609Y-91684211D01*
X147683609Y-91684211D02*
X147707419Y-91636592D01*
X147707419Y-91636592D02*
X147731228Y-91612782D01*
X147731228Y-91612782D02*
X147778847Y-91588973D01*
X147778847Y-91588973D02*
X147850276Y-91588973D01*
X147850276Y-91588973D02*
X147897895Y-91612782D01*
X147897895Y-91612782D02*
X147921704Y-91636592D01*
X147921704Y-91636592D02*
X147945514Y-91684211D01*
X147945514Y-91684211D02*
X147945514Y-91874687D01*
X147683609Y-91422306D02*
X148183609Y-91088973D01*
X147683609Y-91088973D02*
X148183609Y-91422306D01*
X148135990Y-90279449D02*
X148159800Y-90303258D01*
X148159800Y-90303258D02*
X148183609Y-90374687D01*
X148183609Y-90374687D02*
X148183609Y-90422306D01*
X148183609Y-90422306D02*
X148159800Y-90493734D01*
X148159800Y-90493734D02*
X148112180Y-90541353D01*
X148112180Y-90541353D02*
X148064561Y-90565163D01*
X148064561Y-90565163D02*
X147969323Y-90588972D01*
X147969323Y-90588972D02*
X147897895Y-90588972D01*
X147897895Y-90588972D02*
X147802657Y-90565163D01*
X147802657Y-90565163D02*
X147755038Y-90541353D01*
X147755038Y-90541353D02*
X147707419Y-90493734D01*
X147707419Y-90493734D02*
X147683609Y-90422306D01*
X147683609Y-90422306D02*
X147683609Y-90374687D01*
X147683609Y-90374687D02*
X147707419Y-90303258D01*
X147707419Y-90303258D02*
X147731228Y-90279449D01*
X148040752Y-90088972D02*
X148040752Y-89850877D01*
X148183609Y-90136591D02*
X147683609Y-89969925D01*
X147683609Y-89969925D02*
X148183609Y-89803258D01*
X148183609Y-89636592D02*
X147683609Y-89636592D01*
X147683609Y-89636592D02*
X148183609Y-89350878D01*
X148183609Y-89350878D02*
X147683609Y-89350878D01*
X148135990Y-89112782D02*
X148159800Y-89088972D01*
X148159800Y-89088972D02*
X148183609Y-89112782D01*
X148183609Y-89112782D02*
X148159800Y-89136591D01*
X148159800Y-89136591D02*
X148135990Y-89112782D01*
X148135990Y-89112782D02*
X148183609Y-89112782D01*
X147683609Y-88946115D02*
X147683609Y-88660401D01*
X148183609Y-88803258D02*
X147683609Y-88803258D01*
X147683609Y-88541354D02*
X148183609Y-88208021D01*
X147683609Y-88208021D02*
X148183609Y-88541354D01*
X147683609Y-87636591D02*
X147683609Y-87350877D01*
X148183609Y-87493734D02*
X147683609Y-87493734D01*
X147683609Y-87231830D02*
X148183609Y-86898497D01*
X147683609Y-86898497D02*
X148183609Y-87231830D01*
X148183609Y-86708021D02*
X147683609Y-86708021D01*
X147683609Y-86708021D02*
X147683609Y-86588973D01*
X147683609Y-86588973D02*
X147707419Y-86517545D01*
X147707419Y-86517545D02*
X147755038Y-86469926D01*
X147755038Y-86469926D02*
X147802657Y-86446116D01*
X147802657Y-86446116D02*
X147897895Y-86422307D01*
X147897895Y-86422307D02*
X147969323Y-86422307D01*
X147969323Y-86422307D02*
X148064561Y-86446116D01*
X148064561Y-86446116D02*
X148112180Y-86469926D01*
X148112180Y-86469926D02*
X148159800Y-86517545D01*
X148159800Y-86517545D02*
X148183609Y-86588973D01*
X148183609Y-86588973D02*
X148183609Y-86708021D01*
X147683609Y-86255640D02*
X147683609Y-85946116D01*
X147683609Y-85946116D02*
X147874085Y-86112783D01*
X147874085Y-86112783D02*
X147874085Y-86041354D01*
X147874085Y-86041354D02*
X147897895Y-85993735D01*
X147897895Y-85993735D02*
X147921704Y-85969926D01*
X147921704Y-85969926D02*
X147969323Y-85946116D01*
X147969323Y-85946116D02*
X148088371Y-85946116D01*
X148088371Y-85946116D02*
X148135990Y-85969926D01*
X148135990Y-85969926D02*
X148159800Y-85993735D01*
X148159800Y-85993735D02*
X148183609Y-86041354D01*
X148183609Y-86041354D02*
X148183609Y-86184211D01*
X148183609Y-86184211D02*
X148159800Y-86231830D01*
X148159800Y-86231830D02*
X148135990Y-86255640D01*
X148183609Y-84779449D02*
X147945514Y-84946115D01*
X148183609Y-85065163D02*
X147683609Y-85065163D01*
X147683609Y-85065163D02*
X147683609Y-84874687D01*
X147683609Y-84874687D02*
X147707419Y-84827068D01*
X147707419Y-84827068D02*
X147731228Y-84803258D01*
X147731228Y-84803258D02*
X147778847Y-84779449D01*
X147778847Y-84779449D02*
X147850276Y-84779449D01*
X147850276Y-84779449D02*
X147897895Y-84803258D01*
X147897895Y-84803258D02*
X147921704Y-84827068D01*
X147921704Y-84827068D02*
X147945514Y-84874687D01*
X147945514Y-84874687D02*
X147945514Y-85065163D01*
X147683609Y-84612782D02*
X148183609Y-84279449D01*
X147683609Y-84279449D02*
X148183609Y-84612782D01*
X148183609Y-84088973D02*
X147683609Y-84088973D01*
X147683609Y-84088973D02*
X147683609Y-83969925D01*
X147683609Y-83969925D02*
X147707419Y-83898497D01*
X147707419Y-83898497D02*
X147755038Y-83850878D01*
X147755038Y-83850878D02*
X147802657Y-83827068D01*
X147802657Y-83827068D02*
X147897895Y-83803259D01*
X147897895Y-83803259D02*
X147969323Y-83803259D01*
X147969323Y-83803259D02*
X148064561Y-83827068D01*
X148064561Y-83827068D02*
X148112180Y-83850878D01*
X148112180Y-83850878D02*
X148159800Y-83898497D01*
X148159800Y-83898497D02*
X148183609Y-83969925D01*
X148183609Y-83969925D02*
X148183609Y-84088973D01*
X147683609Y-83636592D02*
X147683609Y-83327068D01*
X147683609Y-83327068D02*
X147874085Y-83493735D01*
X147874085Y-83493735D02*
X147874085Y-83422306D01*
X147874085Y-83422306D02*
X147897895Y-83374687D01*
X147897895Y-83374687D02*
X147921704Y-83350878D01*
X147921704Y-83350878D02*
X147969323Y-83327068D01*
X147969323Y-83327068D02*
X148088371Y-83327068D01*
X148088371Y-83327068D02*
X148135990Y-83350878D01*
X148135990Y-83350878D02*
X148159800Y-83374687D01*
X148159800Y-83374687D02*
X148183609Y-83422306D01*
X148183609Y-83422306D02*
X148183609Y-83565163D01*
X148183609Y-83565163D02*
X148159800Y-83612782D01*
X148159800Y-83612782D02*
X148135990Y-83636592D01*
X148183609Y-82565163D02*
X147683609Y-82565163D01*
X147683609Y-82565163D02*
X148183609Y-82279449D01*
X148183609Y-82279449D02*
X147683609Y-82279449D01*
X148183609Y-81755639D02*
X147945514Y-81922305D01*
X148183609Y-82041353D02*
X147683609Y-82041353D01*
X147683609Y-82041353D02*
X147683609Y-81850877D01*
X147683609Y-81850877D02*
X147707419Y-81803258D01*
X147707419Y-81803258D02*
X147731228Y-81779448D01*
X147731228Y-81779448D02*
X147778847Y-81755639D01*
X147778847Y-81755639D02*
X147850276Y-81755639D01*
X147850276Y-81755639D02*
X147897895Y-81779448D01*
X147897895Y-81779448D02*
X147921704Y-81803258D01*
X147921704Y-81803258D02*
X147945514Y-81850877D01*
X147945514Y-81850877D02*
X147945514Y-82041353D01*
X148159800Y-81565162D02*
X148183609Y-81493734D01*
X148183609Y-81493734D02*
X148183609Y-81374686D01*
X148183609Y-81374686D02*
X148159800Y-81327067D01*
X148159800Y-81327067D02*
X148135990Y-81303258D01*
X148135990Y-81303258D02*
X148088371Y-81279448D01*
X148088371Y-81279448D02*
X148040752Y-81279448D01*
X148040752Y-81279448D02*
X147993133Y-81303258D01*
X147993133Y-81303258D02*
X147969323Y-81327067D01*
X147969323Y-81327067D02*
X147945514Y-81374686D01*
X147945514Y-81374686D02*
X147921704Y-81469924D01*
X147921704Y-81469924D02*
X147897895Y-81517543D01*
X147897895Y-81517543D02*
X147874085Y-81541353D01*
X147874085Y-81541353D02*
X147826466Y-81565162D01*
X147826466Y-81565162D02*
X147778847Y-81565162D01*
X147778847Y-81565162D02*
X147731228Y-81541353D01*
X147731228Y-81541353D02*
X147707419Y-81517543D01*
X147707419Y-81517543D02*
X147683609Y-81469924D01*
X147683609Y-81469924D02*
X147683609Y-81350877D01*
X147683609Y-81350877D02*
X147707419Y-81279448D01*
X147683609Y-81136591D02*
X147683609Y-80850877D01*
X148183609Y-80993734D02*
X147683609Y-80993734D01*
X119684836Y-104933609D02*
X119684836Y-104433609D01*
X120018169Y-104433609D02*
X120113407Y-104433609D01*
X120113407Y-104433609D02*
X120161026Y-104457419D01*
X120161026Y-104457419D02*
X120208645Y-104505038D01*
X120208645Y-104505038D02*
X120232455Y-104600276D01*
X120232455Y-104600276D02*
X120232455Y-104766942D01*
X120232455Y-104766942D02*
X120208645Y-104862180D01*
X120208645Y-104862180D02*
X120161026Y-104909800D01*
X120161026Y-104909800D02*
X120113407Y-104933609D01*
X120113407Y-104933609D02*
X120018169Y-104933609D01*
X120018169Y-104933609D02*
X119970550Y-104909800D01*
X119970550Y-104909800D02*
X119922931Y-104862180D01*
X119922931Y-104862180D02*
X119899122Y-104766942D01*
X119899122Y-104766942D02*
X119899122Y-104600276D01*
X119899122Y-104600276D02*
X119922931Y-104505038D01*
X119922931Y-104505038D02*
X119970550Y-104457419D01*
X119970550Y-104457419D02*
X120018169Y-104433609D01*
X120684836Y-104433609D02*
X120446741Y-104433609D01*
X120446741Y-104433609D02*
X120422932Y-104671704D01*
X120422932Y-104671704D02*
X120446741Y-104647895D01*
X120446741Y-104647895D02*
X120494360Y-104624085D01*
X120494360Y-104624085D02*
X120613408Y-104624085D01*
X120613408Y-104624085D02*
X120661027Y-104647895D01*
X120661027Y-104647895D02*
X120684836Y-104671704D01*
X120684836Y-104671704D02*
X120708646Y-104719323D01*
X120708646Y-104719323D02*
X120708646Y-104838371D01*
X120708646Y-104838371D02*
X120684836Y-104885990D01*
X120684836Y-104885990D02*
X120661027Y-104909800D01*
X120661027Y-104909800D02*
X120613408Y-104933609D01*
X120613408Y-104933609D02*
X120494360Y-104933609D01*
X120494360Y-104933609D02*
X120446741Y-104909800D01*
X120446741Y-104909800D02*
X120422932Y-104885990D01*
X118542580Y-99196741D02*
X118566390Y-99149122D01*
X118566390Y-99149122D02*
X118566390Y-99077693D01*
X118566390Y-99077693D02*
X118542580Y-99006265D01*
X118542580Y-99006265D02*
X118494961Y-98958646D01*
X118494961Y-98958646D02*
X118447342Y-98934836D01*
X118447342Y-98934836D02*
X118352104Y-98911027D01*
X118352104Y-98911027D02*
X118280676Y-98911027D01*
X118280676Y-98911027D02*
X118185438Y-98934836D01*
X118185438Y-98934836D02*
X118137819Y-98958646D01*
X118137819Y-98958646D02*
X118090200Y-99006265D01*
X118090200Y-99006265D02*
X118066390Y-99077693D01*
X118066390Y-99077693D02*
X118066390Y-99125312D01*
X118066390Y-99125312D02*
X118090200Y-99196741D01*
X118090200Y-99196741D02*
X118114009Y-99220550D01*
X118114009Y-99220550D02*
X118280676Y-99220550D01*
X118280676Y-99220550D02*
X118280676Y-99125312D01*
X118066390Y-99434836D02*
X118566390Y-99434836D01*
X118566390Y-99434836D02*
X118066390Y-99720550D01*
X118066390Y-99720550D02*
X118566390Y-99720550D01*
X118066390Y-99958646D02*
X118566390Y-99958646D01*
X118566390Y-99958646D02*
X118566390Y-100077694D01*
X118566390Y-100077694D02*
X118542580Y-100149122D01*
X118542580Y-100149122D02*
X118494961Y-100196741D01*
X118494961Y-100196741D02*
X118447342Y-100220551D01*
X118447342Y-100220551D02*
X118352104Y-100244360D01*
X118352104Y-100244360D02*
X118280676Y-100244360D01*
X118280676Y-100244360D02*
X118185438Y-100220551D01*
X118185438Y-100220551D02*
X118137819Y-100196741D01*
X118137819Y-100196741D02*
X118090200Y-100149122D01*
X118090200Y-100149122D02*
X118066390Y-100077694D01*
X118066390Y-100077694D02*
X118066390Y-99958646D01*
X118566390Y-96113408D02*
X118566390Y-96399122D01*
X118066390Y-96256265D02*
X118566390Y-96256265D01*
X118566390Y-96518169D02*
X118066390Y-96851502D01*
X118566390Y-96851502D02*
X118066390Y-96518169D01*
X118066390Y-97041978D02*
X118566390Y-97041978D01*
X118566390Y-97041978D02*
X118566390Y-97161026D01*
X118566390Y-97161026D02*
X118542580Y-97232454D01*
X118542580Y-97232454D02*
X118494961Y-97280073D01*
X118494961Y-97280073D02*
X118447342Y-97303883D01*
X118447342Y-97303883D02*
X118352104Y-97327692D01*
X118352104Y-97327692D02*
X118280676Y-97327692D01*
X118280676Y-97327692D02*
X118185438Y-97303883D01*
X118185438Y-97303883D02*
X118137819Y-97280073D01*
X118137819Y-97280073D02*
X118090200Y-97232454D01*
X118090200Y-97232454D02*
X118066390Y-97161026D01*
X118066390Y-97161026D02*
X118066390Y-97041978D01*
X118518771Y-97518169D02*
X118542580Y-97541978D01*
X118542580Y-97541978D02*
X118566390Y-97589597D01*
X118566390Y-97589597D02*
X118566390Y-97708645D01*
X118566390Y-97708645D02*
X118542580Y-97756264D01*
X118542580Y-97756264D02*
X118518771Y-97780073D01*
X118518771Y-97780073D02*
X118471152Y-97803883D01*
X118471152Y-97803883D02*
X118423533Y-97803883D01*
X118423533Y-97803883D02*
X118352104Y-97780073D01*
X118352104Y-97780073D02*
X118066390Y-97494359D01*
X118066390Y-97494359D02*
X118066390Y-97803883D01*
X118066390Y-93970550D02*
X118304485Y-93803884D01*
X118066390Y-93684836D02*
X118566390Y-93684836D01*
X118566390Y-93684836D02*
X118566390Y-93875312D01*
X118566390Y-93875312D02*
X118542580Y-93922931D01*
X118542580Y-93922931D02*
X118518771Y-93946741D01*
X118518771Y-93946741D02*
X118471152Y-93970550D01*
X118471152Y-93970550D02*
X118399723Y-93970550D01*
X118399723Y-93970550D02*
X118352104Y-93946741D01*
X118352104Y-93946741D02*
X118328295Y-93922931D01*
X118328295Y-93922931D02*
X118304485Y-93875312D01*
X118304485Y-93875312D02*
X118304485Y-93684836D01*
X118566390Y-94137217D02*
X118066390Y-94470550D01*
X118566390Y-94470550D02*
X118066390Y-94137217D01*
X118066390Y-94661026D02*
X118566390Y-94661026D01*
X118566390Y-94661026D02*
X118566390Y-94780074D01*
X118566390Y-94780074D02*
X118542580Y-94851502D01*
X118542580Y-94851502D02*
X118494961Y-94899121D01*
X118494961Y-94899121D02*
X118447342Y-94922931D01*
X118447342Y-94922931D02*
X118352104Y-94946740D01*
X118352104Y-94946740D02*
X118280676Y-94946740D01*
X118280676Y-94946740D02*
X118185438Y-94922931D01*
X118185438Y-94922931D02*
X118137819Y-94899121D01*
X118137819Y-94899121D02*
X118090200Y-94851502D01*
X118090200Y-94851502D02*
X118066390Y-94780074D01*
X118066390Y-94780074D02*
X118066390Y-94661026D01*
X118518771Y-95137217D02*
X118542580Y-95161026D01*
X118542580Y-95161026D02*
X118566390Y-95208645D01*
X118566390Y-95208645D02*
X118566390Y-95327693D01*
X118566390Y-95327693D02*
X118542580Y-95375312D01*
X118542580Y-95375312D02*
X118518771Y-95399121D01*
X118518771Y-95399121D02*
X118471152Y-95422931D01*
X118471152Y-95422931D02*
X118423533Y-95422931D01*
X118423533Y-95422931D02*
X118352104Y-95399121D01*
X118352104Y-95399121D02*
X118066390Y-95113407D01*
X118066390Y-95113407D02*
X118066390Y-95422931D01*
X118066390Y-91434836D02*
X118566390Y-91434836D01*
X118566390Y-91768169D02*
X118566390Y-91863407D01*
X118566390Y-91863407D02*
X118542580Y-91911026D01*
X118542580Y-91911026D02*
X118494961Y-91958645D01*
X118494961Y-91958645D02*
X118399723Y-91982455D01*
X118399723Y-91982455D02*
X118233057Y-91982455D01*
X118233057Y-91982455D02*
X118137819Y-91958645D01*
X118137819Y-91958645D02*
X118090200Y-91911026D01*
X118090200Y-91911026D02*
X118066390Y-91863407D01*
X118066390Y-91863407D02*
X118066390Y-91768169D01*
X118066390Y-91768169D02*
X118090200Y-91720550D01*
X118090200Y-91720550D02*
X118137819Y-91672931D01*
X118137819Y-91672931D02*
X118233057Y-91649122D01*
X118233057Y-91649122D02*
X118399723Y-91649122D01*
X118399723Y-91649122D02*
X118494961Y-91672931D01*
X118494961Y-91672931D02*
X118542580Y-91720550D01*
X118542580Y-91720550D02*
X118566390Y-91768169D01*
X118518771Y-92172932D02*
X118542580Y-92196741D01*
X118542580Y-92196741D02*
X118566390Y-92244360D01*
X118566390Y-92244360D02*
X118566390Y-92363408D01*
X118566390Y-92363408D02*
X118542580Y-92411027D01*
X118542580Y-92411027D02*
X118518771Y-92434836D01*
X118518771Y-92434836D02*
X118471152Y-92458646D01*
X118471152Y-92458646D02*
X118423533Y-92458646D01*
X118423533Y-92458646D02*
X118352104Y-92434836D01*
X118352104Y-92434836D02*
X118066390Y-92149122D01*
X118066390Y-92149122D02*
X118066390Y-92458646D01*
X118066390Y-88934836D02*
X118566390Y-88934836D01*
X118566390Y-89268169D02*
X118566390Y-89363407D01*
X118566390Y-89363407D02*
X118542580Y-89411026D01*
X118542580Y-89411026D02*
X118494961Y-89458645D01*
X118494961Y-89458645D02*
X118399723Y-89482455D01*
X118399723Y-89482455D02*
X118233057Y-89482455D01*
X118233057Y-89482455D02*
X118137819Y-89458645D01*
X118137819Y-89458645D02*
X118090200Y-89411026D01*
X118090200Y-89411026D02*
X118066390Y-89363407D01*
X118066390Y-89363407D02*
X118066390Y-89268169D01*
X118066390Y-89268169D02*
X118090200Y-89220550D01*
X118090200Y-89220550D02*
X118137819Y-89172931D01*
X118137819Y-89172931D02*
X118233057Y-89149122D01*
X118233057Y-89149122D02*
X118399723Y-89149122D01*
X118399723Y-89149122D02*
X118494961Y-89172931D01*
X118494961Y-89172931D02*
X118542580Y-89220550D01*
X118542580Y-89220550D02*
X118566390Y-89268169D01*
X118066390Y-89958646D02*
X118066390Y-89672932D01*
X118066390Y-89815789D02*
X118566390Y-89815789D01*
X118566390Y-89815789D02*
X118494961Y-89768170D01*
X118494961Y-89768170D02*
X118447342Y-89720551D01*
X118447342Y-89720551D02*
X118423533Y-89672932D01*
X118328295Y-86434836D02*
X118328295Y-86601503D01*
X118066390Y-86672931D02*
X118066390Y-86434836D01*
X118066390Y-86434836D02*
X118566390Y-86434836D01*
X118566390Y-86434836D02*
X118566390Y-86672931D01*
X118066390Y-86887217D02*
X118566390Y-86887217D01*
X118566390Y-86887217D02*
X118066390Y-87172931D01*
X118066390Y-87172931D02*
X118566390Y-87172931D01*
X118542580Y-83696741D02*
X118566390Y-83649122D01*
X118566390Y-83649122D02*
X118566390Y-83577693D01*
X118566390Y-83577693D02*
X118542580Y-83506265D01*
X118542580Y-83506265D02*
X118494961Y-83458646D01*
X118494961Y-83458646D02*
X118447342Y-83434836D01*
X118447342Y-83434836D02*
X118352104Y-83411027D01*
X118352104Y-83411027D02*
X118280676Y-83411027D01*
X118280676Y-83411027D02*
X118185438Y-83434836D01*
X118185438Y-83434836D02*
X118137819Y-83458646D01*
X118137819Y-83458646D02*
X118090200Y-83506265D01*
X118090200Y-83506265D02*
X118066390Y-83577693D01*
X118066390Y-83577693D02*
X118066390Y-83625312D01*
X118066390Y-83625312D02*
X118090200Y-83696741D01*
X118090200Y-83696741D02*
X118114009Y-83720550D01*
X118114009Y-83720550D02*
X118280676Y-83720550D01*
X118280676Y-83720550D02*
X118280676Y-83625312D01*
X118066390Y-83934836D02*
X118566390Y-83934836D01*
X118566390Y-83934836D02*
X118066390Y-84220550D01*
X118066390Y-84220550D02*
X118566390Y-84220550D01*
X118066390Y-84458646D02*
X118566390Y-84458646D01*
X118566390Y-84458646D02*
X118566390Y-84577694D01*
X118566390Y-84577694D02*
X118542580Y-84649122D01*
X118542580Y-84649122D02*
X118494961Y-84696741D01*
X118494961Y-84696741D02*
X118447342Y-84720551D01*
X118447342Y-84720551D02*
X118352104Y-84744360D01*
X118352104Y-84744360D02*
X118280676Y-84744360D01*
X118280676Y-84744360D02*
X118185438Y-84720551D01*
X118185438Y-84720551D02*
X118137819Y-84696741D01*
X118137819Y-84696741D02*
X118090200Y-84649122D01*
X118090200Y-84649122D02*
X118066390Y-84577694D01*
X118066390Y-84577694D02*
X118066390Y-84458646D01*
X118566390Y-81113408D02*
X118066390Y-81280074D01*
X118066390Y-81280074D02*
X118566390Y-81446741D01*
X118066390Y-81613407D02*
X118566390Y-81613407D01*
X118566390Y-81613407D02*
X118566390Y-81732455D01*
X118566390Y-81732455D02*
X118542580Y-81803883D01*
X118542580Y-81803883D02*
X118494961Y-81851502D01*
X118494961Y-81851502D02*
X118447342Y-81875312D01*
X118447342Y-81875312D02*
X118352104Y-81899121D01*
X118352104Y-81899121D02*
X118280676Y-81899121D01*
X118280676Y-81899121D02*
X118185438Y-81875312D01*
X118185438Y-81875312D02*
X118137819Y-81851502D01*
X118137819Y-81851502D02*
X118090200Y-81803883D01*
X118090200Y-81803883D02*
X118066390Y-81732455D01*
X118066390Y-81732455D02*
X118066390Y-81613407D01*
X118066390Y-82113407D02*
X118566390Y-82113407D01*
X118566390Y-82113407D02*
X118566390Y-82232455D01*
X118566390Y-82232455D02*
X118542580Y-82303883D01*
X118542580Y-82303883D02*
X118494961Y-82351502D01*
X118494961Y-82351502D02*
X118447342Y-82375312D01*
X118447342Y-82375312D02*
X118352104Y-82399121D01*
X118352104Y-82399121D02*
X118280676Y-82399121D01*
X118280676Y-82399121D02*
X118185438Y-82375312D01*
X118185438Y-82375312D02*
X118137819Y-82351502D01*
X118137819Y-82351502D02*
X118090200Y-82303883D01*
X118090200Y-82303883D02*
X118066390Y-82232455D01*
X118066390Y-82232455D02*
X118066390Y-82113407D01*
D11*
X114488095Y-84704819D02*
X114488095Y-83704819D01*
X114488095Y-84181009D02*
X115059523Y-84181009D01*
X115059523Y-84704819D02*
X115059523Y-83704819D01*
X115488095Y-83800057D02*
X115535714Y-83752438D01*
X115535714Y-83752438D02*
X115630952Y-83704819D01*
X115630952Y-83704819D02*
X115869047Y-83704819D01*
X115869047Y-83704819D02*
X115964285Y-83752438D01*
X115964285Y-83752438D02*
X116011904Y-83800057D01*
X116011904Y-83800057D02*
X116059523Y-83895295D01*
X116059523Y-83895295D02*
X116059523Y-83990533D01*
X116059523Y-83990533D02*
X116011904Y-84133390D01*
X116011904Y-84133390D02*
X115440476Y-84704819D01*
X115440476Y-84704819D02*
X116059523Y-84704819D01*
X114488095Y-112304819D02*
X114488095Y-111304819D01*
X114488095Y-111781009D02*
X115059523Y-111781009D01*
X115059523Y-112304819D02*
X115059523Y-111304819D01*
X116059523Y-112304819D02*
X115488095Y-112304819D01*
X115773809Y-112304819D02*
X115773809Y-111304819D01*
X115773809Y-111304819D02*
X115678571Y-111447676D01*
X115678571Y-111447676D02*
X115583333Y-111542914D01*
X115583333Y-111542914D02*
X115488095Y-111590533D01*
X124916666Y-116454819D02*
X124916666Y-117169104D01*
X124916666Y-117169104D02*
X124869047Y-117311961D01*
X124869047Y-117311961D02*
X124773809Y-117407200D01*
X124773809Y-117407200D02*
X124630952Y-117454819D01*
X124630952Y-117454819D02*
X124535714Y-117454819D01*
X125821428Y-116788152D02*
X125821428Y-117454819D01*
X125583333Y-116407200D02*
X125345238Y-117121485D01*
X125345238Y-117121485D02*
X125964285Y-117121485D01*
X149738095Y-112304819D02*
X149738095Y-111304819D01*
X149738095Y-111781009D02*
X150309523Y-111781009D01*
X150309523Y-112304819D02*
X150309523Y-111304819D01*
X151214285Y-111638152D02*
X151214285Y-112304819D01*
X150976190Y-111257200D02*
X150738095Y-111971485D01*
X150738095Y-111971485D02*
X151357142Y-111971485D01*
D10*
X132288095Y-90457419D02*
X132288095Y-91266942D01*
X132288095Y-91266942D02*
X132335714Y-91362180D01*
X132335714Y-91362180D02*
X132383333Y-91409800D01*
X132383333Y-91409800D02*
X132478571Y-91457419D01*
X132478571Y-91457419D02*
X132669047Y-91457419D01*
X132669047Y-91457419D02*
X132764285Y-91409800D01*
X132764285Y-91409800D02*
X132811904Y-91362180D01*
X132811904Y-91362180D02*
X132859523Y-91266942D01*
X132859523Y-91266942D02*
X132859523Y-90457419D01*
X133859523Y-91457419D02*
X133288095Y-91457419D01*
X133573809Y-91457419D02*
X133573809Y-90457419D01*
X133573809Y-90457419D02*
X133478571Y-90600276D01*
X133478571Y-90600276D02*
X133383333Y-90695514D01*
X133383333Y-90695514D02*
X133288095Y-90743133D01*
D11*
X145666666Y-78874819D02*
X145666666Y-79589104D01*
X145666666Y-79589104D02*
X145619047Y-79731961D01*
X145619047Y-79731961D02*
X145523809Y-79827200D01*
X145523809Y-79827200D02*
X145380952Y-79874819D01*
X145380952Y-79874819D02*
X145285714Y-79874819D01*
X146095238Y-78970057D02*
X146142857Y-78922438D01*
X146142857Y-78922438D02*
X146238095Y-78874819D01*
X146238095Y-78874819D02*
X146476190Y-78874819D01*
X146476190Y-78874819D02*
X146571428Y-78922438D01*
X146571428Y-78922438D02*
X146619047Y-78970057D01*
X146619047Y-78970057D02*
X146666666Y-79065295D01*
X146666666Y-79065295D02*
X146666666Y-79160533D01*
X146666666Y-79160533D02*
X146619047Y-79303390D01*
X146619047Y-79303390D02*
X146047619Y-79874819D01*
X146047619Y-79874819D02*
X146666666Y-79874819D01*
X140704819Y-108766666D02*
X140228628Y-109099999D01*
X140704819Y-109338094D02*
X139704819Y-109338094D01*
X139704819Y-109338094D02*
X139704819Y-108957142D01*
X139704819Y-108957142D02*
X139752438Y-108861904D01*
X139752438Y-108861904D02*
X139800057Y-108814285D01*
X139800057Y-108814285D02*
X139895295Y-108766666D01*
X139895295Y-108766666D02*
X140038152Y-108766666D01*
X140038152Y-108766666D02*
X140133390Y-108814285D01*
X140133390Y-108814285D02*
X140181009Y-108861904D01*
X140181009Y-108861904D02*
X140228628Y-108957142D01*
X140228628Y-108957142D02*
X140228628Y-109338094D01*
X140704819Y-107814285D02*
X140704819Y-108385713D01*
X140704819Y-108099999D02*
X139704819Y-108099999D01*
X139704819Y-108099999D02*
X139847676Y-108195237D01*
X139847676Y-108195237D02*
X139942914Y-108290475D01*
X139942914Y-108290475D02*
X139990533Y-108385713D01*
X119511905Y-109204819D02*
X119511905Y-108204819D01*
X119511905Y-108204819D02*
X119750000Y-108204819D01*
X119750000Y-108204819D02*
X119892857Y-108252438D01*
X119892857Y-108252438D02*
X119988095Y-108347676D01*
X119988095Y-108347676D02*
X120035714Y-108442914D01*
X120035714Y-108442914D02*
X120083333Y-108633390D01*
X120083333Y-108633390D02*
X120083333Y-108776247D01*
X120083333Y-108776247D02*
X120035714Y-108966723D01*
X120035714Y-108966723D02*
X119988095Y-109061961D01*
X119988095Y-109061961D02*
X119892857Y-109157200D01*
X119892857Y-109157200D02*
X119750000Y-109204819D01*
X119750000Y-109204819D02*
X119511905Y-109204819D01*
X121035714Y-109204819D02*
X120464286Y-109204819D01*
X120750000Y-109204819D02*
X120750000Y-108204819D01*
X120750000Y-108204819D02*
X120654762Y-108347676D01*
X120654762Y-108347676D02*
X120559524Y-108442914D01*
X120559524Y-108442914D02*
X120464286Y-108490533D01*
X125166666Y-108931009D02*
X124833333Y-108931009D01*
X124833333Y-109454819D02*
X124833333Y-108454819D01*
X124833333Y-108454819D02*
X125309523Y-108454819D01*
X126214285Y-109454819D02*
X125642857Y-109454819D01*
X125928571Y-109454819D02*
X125928571Y-108454819D01*
X125928571Y-108454819D02*
X125833333Y-108597676D01*
X125833333Y-108597676D02*
X125738095Y-108692914D01*
X125738095Y-108692914D02*
X125642857Y-108740533D01*
X133704819Y-108766666D02*
X133228628Y-109099999D01*
X133704819Y-109338094D02*
X132704819Y-109338094D01*
X132704819Y-109338094D02*
X132704819Y-108957142D01*
X132704819Y-108957142D02*
X132752438Y-108861904D01*
X132752438Y-108861904D02*
X132800057Y-108814285D01*
X132800057Y-108814285D02*
X132895295Y-108766666D01*
X132895295Y-108766666D02*
X133038152Y-108766666D01*
X133038152Y-108766666D02*
X133133390Y-108814285D01*
X133133390Y-108814285D02*
X133181009Y-108861904D01*
X133181009Y-108861904D02*
X133228628Y-108957142D01*
X133228628Y-108957142D02*
X133228628Y-109338094D01*
X132704819Y-107861904D02*
X132704819Y-108338094D01*
X132704819Y-108338094D02*
X133181009Y-108385713D01*
X133181009Y-108385713D02*
X133133390Y-108338094D01*
X133133390Y-108338094D02*
X133085771Y-108242856D01*
X133085771Y-108242856D02*
X133085771Y-108004761D01*
X133085771Y-108004761D02*
X133133390Y-107909523D01*
X133133390Y-107909523D02*
X133181009Y-107861904D01*
X133181009Y-107861904D02*
X133276247Y-107814285D01*
X133276247Y-107814285D02*
X133514342Y-107814285D01*
X133514342Y-107814285D02*
X133609580Y-107861904D01*
X133609580Y-107861904D02*
X133657200Y-107909523D01*
X133657200Y-107909523D02*
X133704819Y-108004761D01*
X133704819Y-108004761D02*
X133704819Y-108242856D01*
X133704819Y-108242856D02*
X133657200Y-108338094D01*
X133657200Y-108338094D02*
X133609580Y-108385713D01*
X114984819Y-106086666D02*
X114508628Y-106419999D01*
X114984819Y-106658094D02*
X113984819Y-106658094D01*
X113984819Y-106658094D02*
X113984819Y-106277142D01*
X113984819Y-106277142D02*
X114032438Y-106181904D01*
X114032438Y-106181904D02*
X114080057Y-106134285D01*
X114080057Y-106134285D02*
X114175295Y-106086666D01*
X114175295Y-106086666D02*
X114318152Y-106086666D01*
X114318152Y-106086666D02*
X114413390Y-106134285D01*
X114413390Y-106134285D02*
X114461009Y-106181904D01*
X114461009Y-106181904D02*
X114508628Y-106277142D01*
X114508628Y-106277142D02*
X114508628Y-106658094D01*
X113984819Y-105229523D02*
X113984819Y-105419999D01*
X113984819Y-105419999D02*
X114032438Y-105515237D01*
X114032438Y-105515237D02*
X114080057Y-105562856D01*
X114080057Y-105562856D02*
X114222914Y-105658094D01*
X114222914Y-105658094D02*
X114413390Y-105705713D01*
X114413390Y-105705713D02*
X114794342Y-105705713D01*
X114794342Y-105705713D02*
X114889580Y-105658094D01*
X114889580Y-105658094D02*
X114937200Y-105610475D01*
X114937200Y-105610475D02*
X114984819Y-105515237D01*
X114984819Y-105515237D02*
X114984819Y-105324761D01*
X114984819Y-105324761D02*
X114937200Y-105229523D01*
X114937200Y-105229523D02*
X114889580Y-105181904D01*
X114889580Y-105181904D02*
X114794342Y-105134285D01*
X114794342Y-105134285D02*
X114556247Y-105134285D01*
X114556247Y-105134285D02*
X114461009Y-105181904D01*
X114461009Y-105181904D02*
X114413390Y-105229523D01*
X114413390Y-105229523D02*
X114365771Y-105324761D01*
X114365771Y-105324761D02*
X114365771Y-105515237D01*
X114365771Y-105515237D02*
X114413390Y-105610475D01*
X114413390Y-105610475D02*
X114461009Y-105658094D01*
X114461009Y-105658094D02*
X114556247Y-105705713D01*
X131804819Y-108766666D02*
X131328628Y-109099999D01*
X131804819Y-109338094D02*
X130804819Y-109338094D01*
X130804819Y-109338094D02*
X130804819Y-108957142D01*
X130804819Y-108957142D02*
X130852438Y-108861904D01*
X130852438Y-108861904D02*
X130900057Y-108814285D01*
X130900057Y-108814285D02*
X130995295Y-108766666D01*
X130995295Y-108766666D02*
X131138152Y-108766666D01*
X131138152Y-108766666D02*
X131233390Y-108814285D01*
X131233390Y-108814285D02*
X131281009Y-108861904D01*
X131281009Y-108861904D02*
X131328628Y-108957142D01*
X131328628Y-108957142D02*
X131328628Y-109338094D01*
X131138152Y-107909523D02*
X131804819Y-107909523D01*
X130757200Y-108147618D02*
X131471485Y-108385713D01*
X131471485Y-108385713D02*
X131471485Y-107766666D01*
X137666666Y-116704819D02*
X137666666Y-117419104D01*
X137666666Y-117419104D02*
X137619047Y-117561961D01*
X137619047Y-117561961D02*
X137523809Y-117657200D01*
X137523809Y-117657200D02*
X137380952Y-117704819D01*
X137380952Y-117704819D02*
X137285714Y-117704819D01*
X138047619Y-116704819D02*
X138666666Y-116704819D01*
X138666666Y-116704819D02*
X138333333Y-117085771D01*
X138333333Y-117085771D02*
X138476190Y-117085771D01*
X138476190Y-117085771D02*
X138571428Y-117133390D01*
X138571428Y-117133390D02*
X138619047Y-117181009D01*
X138619047Y-117181009D02*
X138666666Y-117276247D01*
X138666666Y-117276247D02*
X138666666Y-117514342D01*
X138666666Y-117514342D02*
X138619047Y-117609580D01*
X138619047Y-117609580D02*
X138571428Y-117657200D01*
X138571428Y-117657200D02*
X138476190Y-117704819D01*
X138476190Y-117704819D02*
X138190476Y-117704819D01*
X138190476Y-117704819D02*
X138095238Y-117657200D01*
X138095238Y-117657200D02*
X138047619Y-117609580D01*
X142804819Y-108766666D02*
X142328628Y-109099999D01*
X142804819Y-109338094D02*
X141804819Y-109338094D01*
X141804819Y-109338094D02*
X141804819Y-108957142D01*
X141804819Y-108957142D02*
X141852438Y-108861904D01*
X141852438Y-108861904D02*
X141900057Y-108814285D01*
X141900057Y-108814285D02*
X141995295Y-108766666D01*
X141995295Y-108766666D02*
X142138152Y-108766666D01*
X142138152Y-108766666D02*
X142233390Y-108814285D01*
X142233390Y-108814285D02*
X142281009Y-108861904D01*
X142281009Y-108861904D02*
X142328628Y-108957142D01*
X142328628Y-108957142D02*
X142328628Y-109338094D01*
X141900057Y-108385713D02*
X141852438Y-108338094D01*
X141852438Y-108338094D02*
X141804819Y-108242856D01*
X141804819Y-108242856D02*
X141804819Y-108004761D01*
X141804819Y-108004761D02*
X141852438Y-107909523D01*
X141852438Y-107909523D02*
X141900057Y-107861904D01*
X141900057Y-107861904D02*
X141995295Y-107814285D01*
X141995295Y-107814285D02*
X142090533Y-107814285D01*
X142090533Y-107814285D02*
X142233390Y-107861904D01*
X142233390Y-107861904D02*
X142804819Y-108433332D01*
X142804819Y-108433332D02*
X142804819Y-107814285D01*
X146083333Y-109054819D02*
X145750000Y-108578628D01*
X145511905Y-109054819D02*
X145511905Y-108054819D01*
X145511905Y-108054819D02*
X145892857Y-108054819D01*
X145892857Y-108054819D02*
X145988095Y-108102438D01*
X145988095Y-108102438D02*
X146035714Y-108150057D01*
X146035714Y-108150057D02*
X146083333Y-108245295D01*
X146083333Y-108245295D02*
X146083333Y-108388152D01*
X146083333Y-108388152D02*
X146035714Y-108483390D01*
X146035714Y-108483390D02*
X145988095Y-108531009D01*
X145988095Y-108531009D02*
X145892857Y-108578628D01*
X145892857Y-108578628D02*
X145511905Y-108578628D01*
X146416667Y-108054819D02*
X147035714Y-108054819D01*
X147035714Y-108054819D02*
X146702381Y-108435771D01*
X146702381Y-108435771D02*
X146845238Y-108435771D01*
X146845238Y-108435771D02*
X146940476Y-108483390D01*
X146940476Y-108483390D02*
X146988095Y-108531009D01*
X146988095Y-108531009D02*
X147035714Y-108626247D01*
X147035714Y-108626247D02*
X147035714Y-108864342D01*
X147035714Y-108864342D02*
X146988095Y-108959580D01*
X146988095Y-108959580D02*
X146940476Y-109007200D01*
X146940476Y-109007200D02*
X146845238Y-109054819D01*
X146845238Y-109054819D02*
X146559524Y-109054819D01*
X146559524Y-109054819D02*
X146464286Y-109007200D01*
X146464286Y-109007200D02*
X146416667Y-108959580D01*
X149738095Y-84954819D02*
X149738095Y-83954819D01*
X149738095Y-84431009D02*
X150309523Y-84431009D01*
X150309523Y-84954819D02*
X150309523Y-83954819D01*
X150690476Y-83954819D02*
X151309523Y-83954819D01*
X151309523Y-83954819D02*
X150976190Y-84335771D01*
X150976190Y-84335771D02*
X151119047Y-84335771D01*
X151119047Y-84335771D02*
X151214285Y-84383390D01*
X151214285Y-84383390D02*
X151261904Y-84431009D01*
X151261904Y-84431009D02*
X151309523Y-84526247D01*
X151309523Y-84526247D02*
X151309523Y-84764342D01*
X151309523Y-84764342D02*
X151261904Y-84859580D01*
X151261904Y-84859580D02*
X151214285Y-84907200D01*
X151214285Y-84907200D02*
X151119047Y-84954819D01*
X151119047Y-84954819D02*
X150833333Y-84954819D01*
X150833333Y-84954819D02*
X150738095Y-84907200D01*
X150738095Y-84907200D02*
X150690476Y-84859580D01*
X119916666Y-78874819D02*
X119916666Y-79589104D01*
X119916666Y-79589104D02*
X119869047Y-79731961D01*
X119869047Y-79731961D02*
X119773809Y-79827200D01*
X119773809Y-79827200D02*
X119630952Y-79874819D01*
X119630952Y-79874819D02*
X119535714Y-79874819D01*
X120916666Y-79874819D02*
X120345238Y-79874819D01*
X120630952Y-79874819D02*
X120630952Y-78874819D01*
X120630952Y-78874819D02*
X120535714Y-79017676D01*
X120535714Y-79017676D02*
X120440476Y-79112914D01*
X120440476Y-79112914D02*
X120345238Y-79160533D01*
%TO.C,J4*%
D12*
X122670000Y-113170000D02*
X122670000Y-115830000D01*
X125270000Y-113170000D02*
X122670000Y-113170000D01*
X125270000Y-113170000D02*
X125270000Y-115830000D01*
X125270000Y-115830000D02*
X122670000Y-115830000D01*
X127870000Y-114500000D02*
X127870000Y-115830000D01*
X127870000Y-115830000D02*
X126540000Y-115830000D01*
%TO.C,U1*%
D10*
X121050000Y-82000000D02*
X121050000Y-83000000D01*
X121050000Y-83000000D02*
X121550000Y-82500000D01*
X121550000Y-82500000D02*
X121050000Y-82000000D01*
X123750000Y-79000000D02*
X142350000Y-79000000D01*
X142350000Y-104000000D01*
X123750000Y-104000000D01*
X123750000Y-79000000D01*
X125550000Y-80500000D02*
G75*
G02*
X124550000Y-80500000I-500000J0D01*
G01*
X124550000Y-80500000D02*
G75*
G02*
X125550000Y-80500000I500000J0D01*
G01*
%TO.C,J2*%
D12*
X144620000Y-80420000D02*
X146000000Y-80420000D01*
X144620000Y-81800000D02*
X144620000Y-80420000D01*
X144620000Y-83070000D02*
X144620000Y-103500000D01*
X144620000Y-83070000D02*
X147380000Y-83070000D01*
X144620000Y-103500000D02*
X147380000Y-103500000D01*
X147380000Y-83070000D02*
X147380000Y-103500000D01*
%TO.C,R1*%
X137865000Y-108372936D02*
X137865000Y-108827064D01*
X139335000Y-108372936D02*
X139335000Y-108827064D01*
%TO.C,D1*%
X118600000Y-116510000D02*
X118600000Y-111000000D01*
X118600000Y-116510000D02*
X121900000Y-116510000D01*
X121900000Y-116510000D02*
X121900000Y-111000000D01*
%TO.C,F1*%
X124990000Y-111375279D02*
X124990000Y-111049721D01*
X126010000Y-111375279D02*
X126010000Y-111049721D01*
%TO.C,R5*%
X134165000Y-108827064D02*
X134165000Y-108372936D01*
X135635000Y-108827064D02*
X135635000Y-108372936D01*
%TO.C,R6*%
X116900000Y-101880000D02*
X116900000Y-102650000D01*
X116900000Y-109960000D02*
X116900000Y-109190000D01*
X115530000Y-102650000D02*
X118270000Y-102650000D01*
X118270000Y-109190000D01*
X115530000Y-109190000D01*
X115530000Y-102650000D01*
%TO.C,R4*%
X132265000Y-108827064D02*
X132265000Y-108372936D01*
X133735000Y-108827064D02*
X133735000Y-108372936D01*
%TO.C,J3*%
X130015000Y-111790000D02*
X131815000Y-111790000D01*
X130015000Y-113240000D02*
X130015000Y-111790000D01*
X131285000Y-116060000D02*
X144715000Y-116060000D01*
X131815000Y-111790000D02*
X131815000Y-110800000D01*
X145985000Y-111790000D02*
X144185000Y-111790000D01*
X145985000Y-113240000D02*
X145985000Y-111790000D01*
%TO.C,R2*%
X139965000Y-108372936D02*
X139965000Y-108827064D01*
X141435000Y-108372936D02*
X141435000Y-108827064D01*
%TO.C,R3*%
X146427064Y-109565000D02*
X145972936Y-109565000D01*
X146427064Y-111035000D02*
X145972936Y-111035000D01*
%TO.C,J1*%
X118870000Y-80420000D02*
X120250000Y-80420000D01*
X118870000Y-81800000D02*
X118870000Y-80420000D01*
X118870000Y-83070000D02*
X118870000Y-103500000D01*
X118870000Y-83070000D02*
X121630000Y-83070000D01*
X118870000Y-103500000D02*
X121630000Y-103500000D01*
X121630000Y-83070000D02*
X121630000Y-103500000D01*
%TD*%
M02*
