%TF.GenerationSoftware,KiCad,Pcbnew,10.0.0*%
%TF.CreationDate,2026-09-15T10:52:48+03:00*%
%TF.ProjectId,Ch040,43683034-302e-46b6-9963-61645f706362,rev?*%
%TF.SameCoordinates,Original*%
%TF.FileFunction,Copper,L1,Top*%
%TF.FilePolarity,Positive*%
%FSLAX46Y46*%
G04 Gerber Fmt 4.6, Leading zero omitted, Abs format (unit mm)*
G04 Created by KiCad (PCBNEW 10.0.0) date 2026-09-15 10:52:48*
%MOMM*%
%LPD*%
G01*
G04 APERTURE LIST*
G04 Aperture macros list*
%AMRoundRect*
0 Rectangle with rounded corners*
0 $1 Rounding radius*
0 $2 $3 $4 $5 $6 $7 $8 $9 X,Y pos of 4 corners*
0 Add a 4 corners polygon primitive as box body*
4,1,4,$2,$3,$4,$5,$6,$7,$8,$9,$2,$3,0*
0 Add four circle primitives for the rounded corners*
1,1,$1+$1,$2,$3*
1,1,$1+$1,$4,$5*
1,1,$1+$1,$6,$7*
1,1,$1+$1,$8,$9*
0 Add four rect primitives between the rounded corners*
20,1,$1+$1,$2,$3,$4,$5,0*
20,1,$1+$1,$4,$5,$6,$7,0*
20,1,$1+$1,$6,$7,$8,$9,0*
20,1,$1+$1,$8,$9,$2,$3,0*%
G04 Aperture macros list end*
%TA.AperFunction,ComponentPad*%
%ADD10R,1.700000X1.700000*%
%TD*%
%TA.AperFunction,ComponentPad*%
%ADD11C,1.700000*%
%TD*%
%TA.AperFunction,SMDPad,CuDef*%
%ADD12R,1.400000X1.200000*%
%TD*%
%TA.AperFunction,SMDPad,CuDef*%
%ADD13RoundRect,0.250000X-0.450000X0.262500X-0.450000X-0.262500X0.450000X-0.262500X0.450000X0.262500X0*%
%TD*%
%TA.AperFunction,SMDPad,CuDef*%
%ADD14RoundRect,0.250000X0.650000X-1.000000X0.650000X1.000000X-0.650000X1.000000X-0.650000X-1.000000X0*%
%TD*%
%TA.AperFunction,SMDPad,CuDef*%
%ADD15RoundRect,0.218750X0.256250X-0.218750X0.256250X0.218750X-0.256250X0.218750X-0.256250X-0.218750X0*%
%TD*%
%TA.AperFunction,SMDPad,CuDef*%
%ADD16RoundRect,0.250000X0.450000X-0.262500X0.450000X0.262500X-0.450000X0.262500X-0.450000X-0.262500X0*%
%TD*%
%TA.AperFunction,ComponentPad*%
%ADD17C,1.600000*%
%TD*%
%TA.AperFunction,SMDPad,CuDef*%
%ADD18RoundRect,0.150000X-0.150000X-0.700000X0.150000X-0.700000X0.150000X0.700000X-0.150000X0.700000X0*%
%TD*%
%TA.AperFunction,SMDPad,CuDef*%
%ADD19RoundRect,0.250000X-0.250000X-1.100000X0.250000X-1.100000X0.250000X1.100000X-0.250000X1.100000X0*%
%TD*%
%TA.AperFunction,SMDPad,CuDef*%
%ADD20RoundRect,0.250000X0.262500X0.450000X-0.262500X0.450000X-0.262500X-0.450000X0.262500X-0.450000X0*%
%TD*%
%TA.AperFunction,Conductor*%
%ADD21C,0.500000*%
%TD*%
%TA.AperFunction,Conductor*%
%ADD22C,0.300000*%
%TD*%
%TA.AperFunction,Conductor*%
%ADD23C,0.800000*%
%TD*%
G04 APERTURE END LIST*
D10*
%TO.P,J4,1,Pin_1_1*%
%TO.N,VIN_3V3_5V*%
X126540000Y-114500000D03*
D11*
%TO.P,J4,2,Pin_2_2*%
%TO.N,GND*%
X124000000Y-114500000D03*
%TD*%
D12*
%TO.P,U1,1,VDD_1*%
%TO.N,VDD*%
X123050000Y-82500000D03*
%TO.P,U1,2,GND_2*%
%TO.N,GND*%
X123050000Y-84500000D03*
%TO.P,U1,3,EN_3*%
%TO.N,EN*%
X123050000Y-86500000D03*
%TO.P,U1,4,IO1_4*%
%TO.N,IO1*%
X123050000Y-90500000D03*
%TO.P,U1,5,IO2_5*%
%TO.N,IO2*%
X123050000Y-92500000D03*
%TO.P,U1,6,RXD2_6*%
%TO.N,RXD2*%
X123050000Y-94500000D03*
%TO.P,U1,7,TXD2_7*%
%TO.N,TXD2*%
X123050000Y-96500000D03*
%TO.P,U1,8,GND_8*%
%TO.N,GND_LOCAL*%
X123050000Y-98500000D03*
%TO.P,U1,9,IO5_9*%
%TO.N,IO5*%
X123050000Y-100500000D03*
%TO.P,U1,10,IO6_10*%
%TO.N,IO6*%
X143050000Y-100500000D03*
%TO.P,U1,11,TXD1_11*%
%TO.N,TXD1*%
X143050000Y-98500000D03*
%TO.P,U1,12,RXD1_12*%
%TO.N,RXD1*%
X143050000Y-96500000D03*
%TO.P,U1,13,IO9_13*%
%TO.N,IO9*%
X143050000Y-94500000D03*
%TO.P,U1,14,CAN_RX_14*%
%TO.N,CAN_RX*%
X143050000Y-92500000D03*
%TO.P,U1,15,CAN_TX_15*%
%TO.N,CAN_TX*%
X143050000Y-90500000D03*
%TO.P,U1,16,TXD3_16*%
%TO.N,TXD3*%
X143050000Y-86500000D03*
%TO.P,U1,17,RXD3_17*%
%TO.N,RXD3*%
X143050000Y-84500000D03*
%TO.P,U1,18,NRST_18*%
%TO.N,NRST*%
X143050000Y-82500000D03*
%TD*%
D10*
%TO.P,J2,1,Pin_1_1*%
%TO.N,NRST*%
X146000000Y-81800000D03*
D11*
%TO.P,J2,2,Pin_2_2*%
%TO.N,RXD3*%
X146000000Y-84340000D03*
%TO.P,J2,3,Pin_3_3*%
%TO.N,TXD3*%
X146000000Y-86880000D03*
%TO.P,J2,4,Pin_4_4*%
%TO.N,CAN_TX*%
X146000000Y-89420000D03*
%TO.P,J2,5,Pin_5_5*%
%TO.N,CAN_RX*%
X146000000Y-91960000D03*
%TO.P,J2,6,Pin_6_6*%
%TO.N,IO9*%
X146000000Y-94500000D03*
%TO.P,J2,7,Pin_7_7*%
%TO.N,RXD1*%
X146000000Y-97040000D03*
%TO.P,J2,8,Pin_8_8*%
%TO.N,TXD1*%
X146000000Y-99580000D03*
%TO.P,J2,9,Pin_9_9*%
%TO.N,IO6*%
X146000000Y-102120000D03*
%TD*%
D13*
%TO.P,R1,1*%
%TO.N,TXD1*%
X138600000Y-107687500D03*
%TO.P,R1,2*%
%TO.N,UART1_TX*%
X138600000Y-109512500D03*
%TD*%
D14*
%TO.P,D1,1,A1_1*%
%TO.N,GND*%
X120250000Y-115000000D03*
%TO.P,D1,2,A2_2*%
%TO.N,VDD*%
X120250000Y-111000000D03*
%TD*%
D15*
%TO.P,F1,1*%
%TO.N,VIN_3V3_5V*%
X125500000Y-112000000D03*
%TO.P,F1,2*%
%TO.N,VDD*%
X125500000Y-110425000D03*
%TD*%
D16*
%TO.P,R5,1*%
%TO.N,IO2_EXT*%
X134900000Y-109512500D03*
%TO.P,R5,2*%
%TO.N,IO2*%
X134900000Y-107687500D03*
%TD*%
D17*
%TO.P,R6,1*%
%TO.N,GND*%
X116900000Y-111000000D03*
%TO.P,R6,2*%
%TO.N,GND_LOCAL*%
X116900000Y-100840000D03*
%TD*%
D16*
%TO.P,R4,1*%
%TO.N,IO1_EXT*%
X133000000Y-109512500D03*
%TO.P,R4,2*%
%TO.N,IO1*%
X133000000Y-107687500D03*
%TD*%
D18*
%TO.P,J3,1,Pin_1_1*%
%TO.N,EN*%
X132375000Y-111650000D03*
%TO.P,J3,2,Pin_2_2*%
%TO.N,IO1_EXT*%
X133625000Y-111650000D03*
%TO.P,J3,3,Pin_3_3*%
%TO.N,IO2_EXT*%
X134875000Y-111650000D03*
%TO.P,J3,4,Pin_4_4*%
%TO.N,IO5*%
X136125000Y-111650000D03*
%TO.P,J3,5,Pin_5_5*%
%TO.N,IO6*%
X137375000Y-111650000D03*
%TO.P,J3,6,Pin_6_6*%
%TO.N,UART1_TX*%
X138625000Y-111650000D03*
%TO.P,J3,7,Pin_7_7*%
%TO.N,UART1_RX*%
X139875000Y-111650000D03*
%TO.P,J3,8,Pin_8_8*%
%TO.N,CAN_RX*%
X141125000Y-111650000D03*
%TO.P,J3,9,Pin_9_9*%
%TO.N,CAN_TX*%
X142375000Y-111650000D03*
%TO.P,J3,10,Pin_10_10*%
%TO.N,NRST_EXT*%
X143625000Y-111650000D03*
D19*
%TO.P,J3,MP*%
%TO.N,N/C*%
X130525000Y-114850000D03*
X145475000Y-114850000D03*
%TD*%
D13*
%TO.P,R2,1*%
%TO.N,RXD1*%
X140700000Y-107687500D03*
%TO.P,R2,2*%
%TO.N,UART1_RX*%
X140700000Y-109512500D03*
%TD*%
D20*
%TO.P,R3,1*%
%TO.N,NRST*%
X147112500Y-110300000D03*
%TO.P,R3,2*%
%TO.N,NRST_EXT*%
X145287500Y-110300000D03*
%TD*%
D10*
%TO.P,J1,1,Pin_1_1*%
%TO.N,VDD*%
X120250000Y-81800000D03*
D11*
%TO.P,J1,2,Pin_2_2*%
%TO.N,GND*%
X120250000Y-84340000D03*
%TO.P,J1,3,Pin_3_3*%
%TO.N,EN*%
X120250000Y-86880000D03*
%TO.P,J1,4,Pin_4_4*%
%TO.N,IO1*%
X120250000Y-89420000D03*
%TO.P,J1,5,Pin_5_5*%
%TO.N,IO2*%
X120250000Y-91960000D03*
%TO.P,J1,6,Pin_6_6*%
%TO.N,RXD2*%
X120250000Y-94500000D03*
%TO.P,J1,7,Pin_7_7*%
%TO.N,TXD2*%
X120250000Y-97040000D03*
%TO.P,J1,8,Pin_8_8*%
%TO.N,GND_LOCAL*%
X120250000Y-99580000D03*
%TO.P,J1,9,Pin_9_9*%
%TO.N,IO5*%
X120250000Y-102120000D03*
%TD*%
%TO.N,VDD*%
D21*
X125500000Y-110425000D02*
X120825000Y-110425000D01*
X123050000Y-82500000D02*
X120950000Y-82500000D01*
X120950000Y-82500000D02*
X120250000Y-81800000D01*
D22*
X120825000Y-110425000D02*
X120250000Y-111000000D01*
D21*
X113000000Y-89050000D02*
X120250000Y-81800000D01*
X113000000Y-103750000D02*
X113000000Y-89050000D01*
X120250000Y-111000000D02*
X113000000Y-103750000D01*
%TO.N,GND*%
D23*
X116825000Y-111575000D02*
X120250000Y-115000000D01*
X113900000Y-102585464D02*
X113900000Y-90690000D01*
X125550000Y-108700000D02*
X120014536Y-108700000D01*
X123572919Y-115275000D02*
X124247919Y-115950000D01*
D22*
X122890000Y-84340000D02*
X123050000Y-84500000D01*
D23*
X124247919Y-115950000D02*
X127650000Y-115950000D01*
X120014536Y-108700000D02*
X113900000Y-102585464D01*
X128100000Y-115500000D02*
X128100000Y-111250000D01*
D22*
X116825000Y-111075000D02*
X116825000Y-111575000D01*
D23*
X123150000Y-115350000D02*
X123225000Y-115275000D01*
X123150000Y-115350000D02*
X120600000Y-115350000D01*
X124000000Y-114500000D02*
X123150000Y-115350000D01*
X127650000Y-115950000D02*
X128100000Y-115500000D01*
X120600000Y-115350000D02*
X120250000Y-115000000D01*
D22*
X120250000Y-84340000D02*
X122890000Y-84340000D01*
D23*
X123225000Y-115275000D02*
X123572919Y-115275000D01*
X113900000Y-90690000D02*
X120250000Y-84340000D01*
X128100000Y-111250000D02*
X125550000Y-108700000D01*
D22*
X116900000Y-111000000D02*
X116825000Y-111075000D01*
%TO.N,VIN_3V3_5V*%
D23*
X125500000Y-112000000D02*
X126540000Y-113040000D01*
X126540000Y-113040000D02*
X126540000Y-114500000D01*
%TO.N,EN*%
D22*
X114700000Y-92430000D02*
X120250000Y-86880000D01*
X128517894Y-107792894D02*
X120585787Y-107792894D01*
X132375000Y-111650000D02*
X128517894Y-107792894D01*
X120250000Y-86880000D02*
X122670000Y-86880000D01*
X114700000Y-101907107D02*
X114700000Y-92430000D01*
X122670000Y-86880000D02*
X123050000Y-86500000D01*
X120585787Y-107792894D02*
X114700000Y-101907107D01*
%TO.N,IO5*%
X121870000Y-100500000D02*
X123050000Y-100500000D01*
X136125000Y-107125000D02*
X133750000Y-104750000D01*
X133750000Y-104750000D02*
X124250000Y-104750000D01*
X123050000Y-103550000D02*
X123050000Y-100500000D01*
X136125000Y-111650000D02*
X136125000Y-107125000D01*
X120250000Y-102120000D02*
X121870000Y-100500000D01*
X124250000Y-104750000D02*
X123050000Y-103550000D01*
%TO.N,RXD2*%
X120250000Y-94500000D02*
X123050000Y-94500000D01*
%TO.N,TXD2*%
X120790000Y-96500000D02*
X123050000Y-96500000D01*
X120250000Y-97040000D02*
X120790000Y-96500000D01*
%TO.N,IO1*%
X133000000Y-107687500D02*
X132605394Y-107292894D01*
X120250000Y-89420000D02*
X121330000Y-90500000D01*
X115200000Y-94470000D02*
X120250000Y-89420000D01*
X121330000Y-90500000D02*
X123050000Y-90500000D01*
X132605394Y-107292894D02*
X120792894Y-107292894D01*
X115200000Y-101700000D02*
X115200000Y-94470000D01*
X120792894Y-107292894D02*
X115200000Y-101700000D01*
%TO.N,IO2*%
X119540000Y-91960000D02*
X120250000Y-91960000D01*
X120150000Y-105750000D02*
X115700000Y-101300000D01*
X134900000Y-107687500D02*
X132962500Y-105750000D01*
X132962500Y-105750000D02*
X120150000Y-105750000D01*
X120250000Y-91960000D02*
X120790000Y-92500000D01*
X120790000Y-92500000D02*
X123050000Y-92500000D01*
X115700000Y-95800000D02*
X119540000Y-91960000D01*
X115700000Y-101300000D02*
X115700000Y-95800000D01*
%TO.N,TXD3*%
X143430000Y-86880000D02*
X143050000Y-86500000D01*
X146000000Y-86880000D02*
X143430000Y-86880000D01*
%TO.N,CAN_TX*%
X148700000Y-92120000D02*
X146000000Y-89420000D01*
X146500000Y-105438376D02*
X148700000Y-103238376D01*
X144920000Y-90500000D02*
X143050000Y-90500000D01*
X146000000Y-89420000D02*
X144920000Y-90500000D01*
X142375000Y-110725000D02*
X146500000Y-106600000D01*
X148700000Y-103238376D02*
X148700000Y-92120000D01*
X142375000Y-111650000D02*
X142375000Y-110725000D01*
X146500000Y-106600000D02*
X146500000Y-105438376D01*
%TO.N,RXD3*%
X146000000Y-84340000D02*
X143210000Y-84340000D01*
X143210000Y-84340000D02*
X143050000Y-84500000D01*
%TO.N,IO6*%
X143050000Y-100500000D02*
X144380000Y-100500000D01*
X137375000Y-111650000D02*
X137375000Y-107125000D01*
X144380000Y-100500000D02*
X146000000Y-102120000D01*
X139500000Y-105000000D02*
X144109951Y-105000000D01*
X137375000Y-107125000D02*
X139500000Y-105000000D01*
X146000000Y-103109951D02*
X146000000Y-102120000D01*
X144109951Y-105000000D02*
X146000000Y-103109951D01*
%TO.N,RXD1*%
X143050000Y-96500000D02*
X143590000Y-97040000D01*
X143590000Y-97040000D02*
X146000000Y-97040000D01*
X147700000Y-98740000D02*
X146000000Y-97040000D01*
X147700000Y-102824163D02*
X147700000Y-98740000D01*
X144524163Y-106000000D02*
X147700000Y-102824163D01*
X142000000Y-106000000D02*
X144524163Y-106000000D01*
X140700000Y-107300000D02*
X142000000Y-106000000D01*
X140700000Y-107687500D02*
X140700000Y-107300000D01*
%TO.N,NRST*%
X145300000Y-82500000D02*
X143050000Y-82500000D01*
X146000000Y-81800000D02*
X145300000Y-82500000D01*
X149250000Y-85050000D02*
X146000000Y-81800000D01*
X149250000Y-103500000D02*
X149250000Y-85050000D01*
X147112500Y-110300000D02*
X147112500Y-105637500D01*
X147112500Y-105637500D02*
X149250000Y-103500000D01*
%TO.N,TXD1*%
X147200000Y-102617057D02*
X147200000Y-100780000D01*
X138600000Y-107687500D02*
X140787500Y-105500000D01*
X147200000Y-100780000D02*
X146000000Y-99580000D01*
X144317057Y-105500000D02*
X147200000Y-102617057D01*
X140787500Y-105500000D02*
X144317057Y-105500000D01*
X143050000Y-98500000D02*
X144920000Y-98500000D01*
X144920000Y-98500000D02*
X146000000Y-99580000D01*
%TO.N,CAN_RX*%
X143050000Y-92500000D02*
X145460000Y-92500000D01*
X148200000Y-94160000D02*
X146000000Y-91960000D01*
X146000000Y-105231270D02*
X148200000Y-103031270D01*
X146000000Y-106050000D02*
X146000000Y-105231270D01*
X145460000Y-92500000D02*
X146000000Y-91960000D01*
X148200000Y-103031270D02*
X148200000Y-94160000D01*
X141125000Y-111650000D02*
X141125000Y-110925000D01*
X141125000Y-110925000D02*
X146000000Y-106050000D01*
%TO.N,IO9*%
X143050000Y-94500000D02*
X146000000Y-94500000D01*
%TO.N,IO2_EXT*%
X134875000Y-109625000D02*
X134875000Y-111650000D01*
X135000000Y-109500000D02*
X134875000Y-109625000D01*
%TO.N,NRST_EXT*%
X144975000Y-110300000D02*
X143625000Y-111650000D01*
X143600000Y-111625000D02*
X143625000Y-111650000D01*
X145287500Y-110300000D02*
X144975000Y-110300000D01*
%TO.N,UART1_TX*%
X138625000Y-109625000D02*
X138625000Y-111650000D01*
%TO.N,UART1_RX*%
X140700000Y-109512500D02*
X139875000Y-110337500D01*
X139875000Y-110337500D02*
X139875000Y-111650000D01*
%TO.N,IO1_EXT*%
X133000000Y-109512500D02*
X133625000Y-110137500D01*
X133625000Y-110137500D02*
X133625000Y-111650000D01*
%TO.N,GND_LOCAL*%
X120135000Y-99465000D02*
X120250000Y-99580000D01*
D23*
X120250000Y-99580000D02*
X121330000Y-98500000D01*
X118275000Y-99465000D02*
X120135000Y-99465000D01*
X121330000Y-98500000D02*
X123050000Y-98500000D01*
X116900000Y-100840000D02*
X118275000Y-99465000D01*
%TD*%
M02*
