%TF.GenerationSoftware,KiCad,Pcbnew,10.0.0*%
%TF.CreationDate,2026-09-15T10:52:48+03:00*%
%TF.ProjectId,Ch040,43683034-302e-46b6-9963-61645f706362,rev?*%
%TF.SameCoordinates,Original*%
%TF.FileFunction,Soldermask,Top*%
%TF.FilePolarity,Negative*%
%FSLAX46Y46*%
G04 Gerber Fmt 4.6, Leading zero omitted, Abs format (unit mm)*
G04 Created by KiCad (PCBNEW 10.0.0) date 2026-09-15 10:52:48*
%MOMM*%
%LPD*%
G01*
G04 APERTURE LIST*
G04 Aperture macros list*
%AMRoundRect*
0 Rectangle with rounded corners*
0 $1 Rounding radius*
0 $2 $3 $4 $5 $6 $7 $8 $9 X,Y pos of 4 corners*
0 Add a 4 corners polygon primitive as box body*
4,1,4,$2,$3,$4,$5,$6,$7,$8,$9,$2,$3,0*
0 Add four circle primitives for the rounded corners*
1,1,$1+$1,$2,$3*
1,1,$1+$1,$4,$5*
1,1,$1+$1,$6,$7*
1,1,$1+$1,$8,$9*
0 Add four rect primitives between the rounded corners*
20,1,$1+$1,$2,$3,$4,$5,0*
20,1,$1+$1,$4,$5,$6,$7,0*
20,1,$1+$1,$6,$7,$8,$9,0*
20,1,$1+$1,$8,$9,$2,$3,0*%
G04 Aperture macros list end*
%ADD10C,2.200000*%
%ADD11R,1.700000X1.700000*%
%ADD12C,1.700000*%
%ADD13R,1.400000X1.200000*%
%ADD14RoundRect,0.250000X-0.450000X0.262500X-0.450000X-0.262500X0.450000X-0.262500X0.450000X0.262500X0*%
%ADD15RoundRect,0.250000X0.650000X-1.000000X0.650000X1.000000X-0.650000X1.000000X-0.650000X-1.000000X0*%
%ADD16RoundRect,0.218750X0.256250X-0.218750X0.256250X0.218750X-0.256250X0.218750X-0.256250X-0.218750X0*%
%ADD17RoundRect,0.250000X0.450000X-0.262500X0.450000X0.262500X-0.450000X0.262500X-0.450000X-0.262500X0*%
%ADD18C,1.600000*%
%ADD19RoundRect,0.150000X-0.150000X-0.700000X0.150000X-0.700000X0.150000X0.700000X-0.150000X0.700000X0*%
%ADD20RoundRect,0.250000X-0.250000X-1.100000X0.250000X-1.100000X0.250000X1.100000X-0.250000X1.100000X0*%
%ADD21RoundRect,0.250000X0.262500X0.450000X-0.262500X0.450000X-0.262500X-0.450000X0.262500X-0.450000X0*%
G04 APERTURE END LIST*
D10*
%TO.C,H2*%
X115250000Y-81000000D03*
%TD*%
%TO.C,H1*%
X115250000Y-115000000D03*
%TD*%
D11*
%TO.C,J4*%
X126540000Y-114500000D03*
D12*
X124000000Y-114500000D03*
%TD*%
D10*
%TO.C,H4*%
X150500000Y-115000000D03*
%TD*%
D13*
%TO.C,U1*%
X123050000Y-82500000D03*
X123050000Y-84500000D03*
X123050000Y-86500000D03*
X123050000Y-90500000D03*
X123050000Y-92500000D03*
X123050000Y-94500000D03*
X123050000Y-96500000D03*
X123050000Y-98500000D03*
X123050000Y-100500000D03*
X143050000Y-100500000D03*
X143050000Y-98500000D03*
X143050000Y-96500000D03*
X143050000Y-94500000D03*
X143050000Y-92500000D03*
X143050000Y-90500000D03*
X143050000Y-86500000D03*
X143050000Y-84500000D03*
X143050000Y-82500000D03*
%TD*%
D11*
%TO.C,J2*%
X146000000Y-81800000D03*
D12*
X146000000Y-84340000D03*
X146000000Y-86880000D03*
X146000000Y-89420000D03*
X146000000Y-91960000D03*
X146000000Y-94500000D03*
X146000000Y-97040000D03*
X146000000Y-99580000D03*
X146000000Y-102120000D03*
%TD*%
D14*
%TO.C,R1*%
X138600000Y-107687500D03*
X138600000Y-109512500D03*
%TD*%
D15*
%TO.C,D1*%
X120250000Y-115000000D03*
X120250000Y-111000000D03*
%TD*%
D16*
%TO.C,F1*%
X125500000Y-112000000D03*
X125500000Y-110425000D03*
%TD*%
D17*
%TO.C,R5*%
X134900000Y-109512500D03*
X134900000Y-107687500D03*
%TD*%
D18*
%TO.C,R6*%
X116900000Y-111000000D03*
X116900000Y-100840000D03*
%TD*%
D17*
%TO.C,R4*%
X133000000Y-109512500D03*
X133000000Y-107687500D03*
%TD*%
D19*
%TO.C,J3*%
X132375000Y-111650000D03*
X133625000Y-111650000D03*
X134875000Y-111650000D03*
X136125000Y-111650000D03*
X137375000Y-111650000D03*
X138625000Y-111650000D03*
X139875000Y-111650000D03*
X141125000Y-111650000D03*
X142375000Y-111650000D03*
X143625000Y-111650000D03*
D20*
X130525000Y-114850000D03*
X145475000Y-114850000D03*
%TD*%
D14*
%TO.C,R2*%
X140700000Y-107687500D03*
X140700000Y-109512500D03*
%TD*%
D21*
%TO.C,R3*%
X147112500Y-110300000D03*
X145287500Y-110300000D03*
%TD*%
D10*
%TO.C,H3*%
X150500000Y-81000000D03*
%TD*%
D11*
%TO.C,J1*%
X120250000Y-81800000D03*
D12*
X120250000Y-84340000D03*
X120250000Y-86880000D03*
X120250000Y-89420000D03*
X120250000Y-91960000D03*
X120250000Y-94500000D03*
X120250000Y-97040000D03*
X120250000Y-99580000D03*
X120250000Y-102120000D03*
%TD*%
M02*
